<?xml version="1.0" encoding="utf-8"?>
<!-- Generator: Adobe Illustrator 27.9.0, SVG Export Plug-In . SVG Version: 6.00 Build 0)  -->
<svg version="1.1" id="Layer_1" xmlns="http://www.w3.org/2000/svg" xmlns:xlink="http://www.w3.org/1999/xlink" x="0px" y="0px"
	 viewBox="0 0 1024 780.5" style="enable-background:new 0 0 1024 780.5;" xml:space="preserve">
<style type="text/css">
	.st0{fill:#7C376A;}
	.st1{fill:#FFFFFF;}
</style>
<g>
	<circle class="st0" cx="512" cy="390.2" r="184.9"/>
	<g>
		<path class="st1" d="M556.1,339.4c-11.3-3.8-17.9-16.5-14.1-28.2c3.8-12,16.5-18.6,28.6-14.8c12,3.8,18.3,16.2,14.4,28.6
			C580.8,336.9,568.1,343.2,556.1,339.4L556.1,339.4z"/>
		<path class="st1" d="M528.2,393.8c0.3,0,0.7-0.3,1-0.7c0-0.7,0.3-1.4,0.3-1.7c1-3.8,4.1-5.8,8.3-5.8c1,0,1.7,0,2.8-0.3
			c3.1-0.3,6.2-0.7,8.9-1.4c5.2-1.7,9.6-4.5,13.1-8.3l1.4-1.4c1-1,1.7-2.1,2.8-3.4c2.1-2.8,3.1-6.2,3.8-9.6c0.7-3.8-1-7.6,0.3-11.3
			c1-2.8,3.8-5.2,6.9-6.2c5.8-2.1,12.4,0.7,16.2,5.5c7.9,9.6,13.4,21,17.9,32.4c3.4,9.3,5.8,18.9,6.9,28.9
			c0.7,9.6,0.7,20.7-3.8,29.3c-3.4,6.5-8.9,7.6-15.9,8.3c-1,1-1,2.1-1,3.1v10.7c0,4.5,0,8.9-0.3,13.4c0,4.1-1,9.3-3.1,13.4
			c-1.4,2.8-3.8,4.5-6.9,5.2c-16.9,3.8-15.1-27.5-15.1-36.1v-6.9c0-0.7,0-1.7-0.3-2.8c-4.1-0.3-7.2-0.7-9.6-1.4
			c-1.4-0.3-2.8-0.3-4.1-0.7c-2.4-0.3-3.8-3.1-2.8-5.2c4.8-9.6,7.9-20.7,10-29.6c1.4-5.5,2.1-10.4,2.4-13.8c-0.3-0.7-0.7-1.4-1-1
			c-4.8,3.8-11,5.5-16.9,6.2c-5.2,0.7-12.7,1.7-17.5-1c-1-0.7-1.7-1.4-2.4-2.1c-0.7,0-1.4,0.3-2.1,1.4c-1,2.1-0.3,4.5,0.7,6.5
			c1,1.7,3.4,3.1,3.4,5.2v66.4c0,1.7-1.4,3.4-3.1,3.8c-2.1,0.3-3.8-1.4-3.8-3.4v-47.8c0-8.3,0-16.5-2.8-24.8
			C520.5,400.4,522.9,396.2,528.2,393.8L528.2,393.8L528.2,393.8z"/>
		<path class="st1" d="M482.4,310.5c-3.8-12-16.5-18.6-28.6-14.8c-1,0.3-1.7,0.7-2.8,1v-0.3c-2.4-7.6-10.3-11.7-17.9-8.9
			c-7.2,2.4-11.3,10-8.9,17.5c2.1,6.2,7.9,10,14.1,9.6c-0.3,3.1,0,6.2,1,9.6c3.8,12,16.5,18.3,28.9,14.4
			C479.4,335,486.2,322.2,482.4,310.5L482.4,310.5z"/>
		<path class="st1" d="M495.8,393.1c-0.3,0-0.7-0.3-1-0.7c0-0.7-0.3-1.4-0.3-1.7c-1-3.8-4.1-5.8-8.3-5.8c-1,0-1.7,0-2.8-0.3
			c-3.1-0.3-6.2-0.7-8.9-1.4c-5.2-1.7-9.6-4.5-13.1-8.3l-1.4-1.4c-1-1-1.7-2.1-2.8-3.4c-2.1-2.8-3.1-6.2-3.8-9.6
			c-0.7-3.8,1-7.6-0.3-11.3c-1-2.8-3.8-5.2-6.9-6.2c-5.8-2.1-12.4,0.7-16.2,5.5c-7.9,9.6-13.4,21-17.9,32.4
			c-3.4,9.3-5.8,18.9-6.9,28.9c-0.7,9.6-0.7,20.7,3.8,29.3c3.4,6.5,8.9,7.6,15.9,8.3c1,1,1,2.1,1,3.1V461c0,4.5,0,8.9,0.3,13.4
			c0,4.1,1,9.3,3.1,13.4c1.4,2.8,3.8,4.5,6.9,5.2c16.9,3.8,15.1-27.5,15.1-36.1V450c0-0.7,0-1.7,0.3-2.8c4.1-0.3,7.2-0.7,9.6-1.4
			c1.4-0.3,2.8-0.3,4.1-0.7c2.4-0.3,3.8-3.1,2.8-5.2c-4.8-9.6-7.9-20.7-10-29.6c-1.4-5.5-2.1-10.4-2.4-13.8c0.3-0.7,0.7-1.4,1-1
			c4.8,3.8,11,5.5,16.9,6.2c5.2,0.7,12.7,1.7,17.5-1c1-0.7,1.7-1.4,2.4-2.1c0.7,0,1.4,0.3,2.1,1.4c1,2.1,0.3,4.5-0.7,6.5
			c-1,1.7-3.4,3.1-3.4,5.2v66.4c0,1.7,1.4,3.4,3.1,3.8c2.1,0.3,3.8-1.4,3.8-3.4v-47.8c0-8.3,0-16.5,2.8-24.8
			C503.5,399.7,501.1,395.5,495.8,393.1L495.8,393.1L495.8,393.1z"/>
	</g>
</g>
</svg>
