<?xml version="1.0" encoding="utf-8"?>
<!-- Generator: Adobe Illustrator 27.9.0, SVG Export Plug-In . SVG Version: 6.00 Build 0)  -->
<svg version="1.1" id="Layer_1" xmlns="http://www.w3.org/2000/svg" xmlns:xlink="http://www.w3.org/1999/xlink" x="0px" y="0px"
	 viewBox="0 0 1024 780.5" style="enable-background:new 0 0 1024 780.5;" xml:space="preserve">
<style type="text/css">
	.st0{fill:#7C376A;}
	.st1{fill:#FFFFFF;}
</style>
<g>
	<circle class="st0" cx="512" cy="390.2" r="184.9"/>
	<g>
		<path class="st1" d="M521.3,297.1c12.7-3,25.5,5,28.5,17.7c3,12.7-5,25.5-17.7,28.5c-12.7,3-25.5-5-28.5-17.7
			C500.6,312.9,508.5,300.1,521.3,297.1"/>
		<path class="st1" d="M570.6,377.5c9.4,8.5,3.6,21-18.9,45.2c-4.8,5.1,3.6,7.8,17.2,8.5l-2.9,38.7c-0.7,8,6.1,14.8,14.3,14
			c6.5-0.5,11.4-6.3,11.9-12.8l3.2-40.6c1.2,0,2.7,0,3.9-0.2c0,0.5,0.2,1.2,0.5,1.7l17.9,43.8c2.9,7.5,12.1,10.6,19.1,6.3
			c5.6-3.4,7.5-10.6,5.1-16.7l-15.9-39c11.6-2.7,18.6-6.3,15-10.2c-17.2-18.4-0.7-40.9-38.2-66.5c-17.2-11.9-35-29.7-47.4-16.9
			c-8.7,8.9-11.9,18.9-13.1,23.7c-0.5,1.2-1.5,4.8-1,24.7L525,392.6c-4.6,3.4-6.5,9.7-3.9,14.5c2.7,5.3,8.7,7,13.8,5.1
			c0.7-0.2,1.5-0.7,2.2-1.2l21-15.2c2.9-2.2,4.8-5.6,4.6-9.2c-0.2-4.8-0.2-10.4-0.2-15L570.6,377.5L570.6,377.5L570.6,377.5z"/>
		<path class="st1" d="M383.9,378c-3.2,2.7-3.6,7.2-0.5,10.4l23.7,27.6v60.7c0,3.9,3.2,7.2,7.2,7.2c3.9,0,7.2-3.2,7.2-7.2v-29.5
			c0-1,0.7-1.9,1.9-1.9h6.8c1,0,1.9,0.7,1.9,1.9v29.5c0,3.9,3.4,7.2,7.2,7.2c3.9,0,7.2-3.2,7.2-7.2V416l23.7-27.6
			c2.7-3.2,2.4-7.7-0.7-10.4c-3.2-2.7-7.7-2.4-10.4,0.7L441.9,399c-1.9,2.2-4.6,3.4-7.5,3.4h-15.2c-2.9,0-5.6-1.2-7.5-3.4
			l-17.4-20.3C391.7,375.6,387.1,375.3,383.9,378L383.9,378L383.9,378z"/>
		<path class="st1" d="M408.8,377.8c0-9.9,8-17.9,17.9-17.9c9.9,0,17.9,8,17.9,17.9c0,9.9-8,17.9-17.9,17.9
			C416.8,395.7,408.8,387.7,408.8,377.8"/>
		<path class="st1" d="M476.9,462.4v17.2c0,2.4,1.9,4.4,4.4,4.4h17.2c2.4,0,4.4-1.9,4.4-4.4v-17.2c0-2.4-1.9-4.4-4.4-4.4h-17.2
			C478.9,458,476.7,460,476.9,462.4z"/>
		<path class="st1" d="M508.6,462.4v17.2c0,2.4,1.9,4.4,4.4,4.4h17.2c2.4,0,4.4-1.9,4.4-4.4v-17.2c0-2.4-1.9-4.4-4.4-4.4h-17.2
			C510.5,458,508.6,460,508.6,462.4z"/>
		<path class="st1" d="M512.8,426.8c-2.4,0-4.4,1.9-4.4,4.4v17.2c0,2.4,1.9,4.4,4.4,4.4H530c2.4,0,4.4-1.9,4.4-4.4v-17.2
			c0-2.4-1.9-4.4-4.4-4.4H512.8z"/>
		<path class="st1" d="M481.6,426.8c-2.4,0-4.4,1.9-4.4,4.4v17.2c0,2.4,1.9,4.4,4.4,4.4h17.2c2.4,0,4.4-1.9,4.4-4.4v-17.2
			c0-2.4-1.9-4.4-4.4-4.4H481.6z"/>
		<path class="st1" d="M482,395.7c-2.4,0-4.4,1.9-4.4,4.4v17.2c0,2.4,1.9,4.4,4.4,4.4h17.2c2.4,0,4.4-1.9,4.4-4.4V400
			c0-2.4-1.9-4.4-4.4-4.4H482z"/>
	</g>
</g>
</svg>
