<?xml version="1.0" encoding="utf-8"?>
<!-- Generator: Adobe Illustrator 27.9.0, SVG Export Plug-In . SVG Version: 6.00 Build 0)  -->
<svg version="1.1" id="Layer_1" xmlns="http://www.w3.org/2000/svg" xmlns:xlink="http://www.w3.org/1999/xlink" x="0px" y="0px"
	 viewBox="0 0 1024 780.5" style="enable-background:new 0 0 1024 780.5;" xml:space="preserve">
<style type="text/css">
	.st0{fill:#7C376A;}
	.st1{fill:#FFFFFF;}
</style>
<g>
	<circle class="st0" cx="512" cy="390.2" r="184.9"/>
	<g>
		<path class="st1" d="M506.8,437c-4.3,0-8.4,0.9-12,2.7v-70.3l-14.5-108.1c0,0-0.3-1.6-2.4-2.2l0,0c0,0,0,0,0,0l0,0l0,0
			c-2.2,0.7-2.4,2.3-2.4,2.3l-14.5,108.1v70.3c-3.7-1.7-7.7-2.7-12-2.7c-15.7,0-28.4,12.7-28.4,28.4c0,15.7,12.7,28.4,28.4,28.4
			s28.4-12.7,28.4-28.4c0-3-0.5-5.9-1.3-8.6v-60.5h3.8v60.5c-0.8,2.7-1.3,5.6-1.3,8.6c0,15.6,12.5,28.2,28,28.4
			c-0.4,5.1,0.2,12.7,2.5,18.9c2.7,7.2,10,11.1,13.8,7.6c7.9-6.9-3.9-16.3-3.9-16.3c-3.2-4.7-2-9.6-0.8-12.6
			c10.1-4.4,17.1-14.4,17.1-26.1C535.3,449.7,522.6,437,506.8,437L506.8,437L506.8,437z M448.8,481c-8.7,0-15.7-7-15.7-15.7
			c0-8.7,7-15.7,15.7-15.7s15.7,7,15.7,15.7C464.5,474,457.5,481,448.8,481z M506.8,481c-8.7,0-15.7-7-15.7-15.7
			c0-8.7,7.1-15.7,15.7-15.7s15.7,7,15.7,15.7C522.5,474,515.5,481,506.8,481z"/>
		<g>
			<path class="st1" d="M548.4,371.6h-32.6c0.3,1.6,0.7,3.1,1,4.6h32.6C549.1,374.6,548.7,373.1,548.4,371.6z"/>
			<path class="st1" d="M551,382.4h-32.6c0.4,1.6,0.8,3.1,1.2,4.6h32.6C551.8,385.4,551.4,383.9,551,382.4z"/>
			<path class="st1" d="M554,393.3h-32.6c0.5,1.6,0.9,3.1,1.4,4.6h32.6C554.9,396.3,554.4,394.8,554,393.3z"/>
			<path class="st1" d="M546.3,360.7h-32.6c0.3,1.5,0.5,3.1,0.8,4.6h32.6C546.9,363.8,546.6,362.2,546.3,360.7z"/>
			<path class="st1" d="M544.7,349.9h-32.6c0.2,1.5,0.4,3.1,0.6,4.6h32.6C545.1,352.9,544.9,351.4,544.7,349.9z"/>
			<path class="st1" d="M543.8,339.1h-32.6c0.1,1.5,0.2,3.1,0.3,4.6h32.6C544,342.1,543.9,340.6,543.8,339.1z"/>
			<path class="st1" d="M543.7,328.2h-32.6c0,1.5,0,3,0,4.6h32.6C543.7,331.2,543.7,329.7,543.7,328.2z"/>
			<path class="st1" d="M544.2,317.4h-32.6c-0.1,1.5-0.2,3-0.2,4.6h32.6C544,320.4,544.1,318.9,544.2,317.4z"/>
			<path class="st1" d="M545.1,306.5h-32.6c-0.2,1.5-0.3,3-0.5,4.6h32.6C544.8,309.5,545,308,545.1,306.5z"/>
			<path class="st1" d="M546.8,295.7h-32.6c-0.3,1.5-0.6,3-0.8,4.6H546C546.2,298.7,546.5,297.1,546.8,295.7z"/>
			<path class="st1" d="M549.4,284.9h-32.6c-0.4,1.5-0.8,3-1.2,4.6h32.6C548.5,287.8,548.9,286.3,549.4,284.9z"/>
			<path class="st1" d="M553.4,274h-32.6c-0.7,1.4-1.3,3-1.9,4.6h32.6C552,277,552.7,275.4,553.4,274z"/>
			<path class="st1" d="M560.7,263.2h-32.6c-1.5,1.4-2.7,2.9-3.9,4.6h32.6C558,266.1,559.3,264.5,560.7,263.2z"/>
			<path class="st1" d="M603.6,332.8c0-46.7-11.9-73.9-26.7-73.9c-14.7,0-26.7,27.2-26.7,73.9c0,23.3,7.7,50.5,13.4,70.3
				c7.3,25.8,2.4,57.3-1,95.1c-0.3,4,1,7.9,3.8,10.9c2.7,3,6.5,4.6,10.6,4.6s7.9-1.6,10.6-4.6c2.7-3,4-6.9,3.8-10.9
				c-3.5-37.8-8.3-69.3-1-95.1C595.9,383.3,603.6,356.2,603.6,332.8L603.6,332.8z"/>
		</g>
	</g>
</g>
</svg>
