<?xml version="1.0" encoding="utf-8"?>
<!-- Generator: Adobe Illustrator 27.9.0, SVG Export Plug-In . SVG Version: 6.00 Build 0)  -->
<svg version="1.1" id="Layer_1" xmlns="http://www.w3.org/2000/svg" xmlns:xlink="http://www.w3.org/1999/xlink" x="0px" y="0px"
	 viewBox="0 0 1024 780.5" style="enable-background:new 0 0 1024 780.5;" xml:space="preserve">
<style type="text/css">
	.st0{fill:#7C376A;}
	.st1{fill:#FFFFFF;}
</style>
<g>
	<circle class="st0" cx="512" cy="390.2" r="184.9"/>
	<g>
		<g>
			<path class="st1" d="M545.3,446.2l-147.8-92.8c-0.5-0.3-0.6-0.8-0.3-1.3l5-8c0.3-0.5,0.8-0.6,1.3-0.3L551,436.5
				c0.5,0.3,0.6,0.8,0.3,1.3l-5,8C546.2,446.5,545.8,446.6,545.3,446.2L545.3,446.2L545.3,446.2z"/>
			<path class="st1" d="M609.7,415.4l26.4-42.1c1.1-1.8,1-4.4-0.7-5.8c-103.4-95.2-205.1-45.6-223.9-35.1c-1.6,0.8-1.5,3-0.2,3.8
				L557.5,428c1,0.7,2.5,0.5,3.5-0.3c12.5-10.2,29.5-14.3,45.1-11C607.7,417,609,416.7,609.7,415.4L609.7,415.4L609.7,415.4z
				 M558.1,393.8c-0.5-0.3-0.7-1.2-0.4-1.7l2.4-3.9c0.3-0.5,0.1-1.4-0.4-1.7l-29.7-18.7c-0.5-0.3-1.4-0.1-1.7,0.4l-2.4,3.9
				c-0.3,0.5-1.2,0.7-1.7,0.4L492,352.2c-1.6-1-1.4-3,0.2-3.8c12.3-6.4,57.7-25.4,104.2,16.5c1.6,1.4,1.8,4,0.7,5.8l-18.6,29.7
				c-1.5,2.3-4.8,3.1-7.2,1.6L558.1,393.8L558.1,393.8z"/>
		</g>
		<g>
			<path class="st1" d="M482.6,434.6l9.2-14.7l-5.9-3.7l-12.5,19.9l2.4,2c7.9,5.7,9.8,16.4,4.6,24.6c-5.2,8.2-16.8,11.1-25.3,5.8
				l-1.5-0.9l-2.7-2.1l-2.1,2.7c-1.8,2.2-5.4,4-9.9,2.8c-4.6-1.2-8.1-6.7-8.3-10.9l-0.3-4.7l-4.2,1.5c-3.1,0.9-8,0.3-12.8-4.4
				c-4.2-4.3-6.2-12.9-2.1-18.9l2.1-2.7l-2.7-2.1c-5.4-3.8-6.9-11.2-3.3-16.8c3.7-5.9,11.3-7.6,17.2-4c1.2,0.8,1.9,1.6,2.6,2.4
				l3.1,3.6l14.7-23.5l-5.9-3.7L429,402.9c-9-6.5-22-4-28.1,5.7c-5,7.9-3.4,17.9,2.8,24.3c-3.7,7.9-2,18.8,4.5,25.4
				c5.6,5.5,11.4,7.2,16.1,6.9c1.3,4.5,4.6,9,8.7,11.6c1.2,0.8,2.8,1.4,4.2,1.8c6.2,1.8,11.5-0.1,15.2-2.7
				c11.9,7.1,27.1,3.1,34.5-8.6C493.2,456.4,491.1,442.8,482.6,434.6L482.6,434.6L482.6,434.6z"/>
			<path class="st1" d="M452.2,395l5.9,3.7l-19,30.3l-5.9-3.7L452.2,395z"/>
			<path class="st1" d="M408.2,367.3l5.9,3.7l-10.7,17l-5.9-3.7L408.2,367.3z"/>
			<path class="st1" d="M518,436.3l5.9,3.7l-20.1,32l-5.9-3.7L518,436.3z"/>
		</g>
	</g>
</g>
</svg>
