<?xml version="1.0" encoding="utf-8"?>
<!-- Generator: Adobe Illustrator 27.9.0, SVG Export Plug-In . SVG Version: 6.00 Build 0)  -->
<svg version="1.1" id="Layer_1" xmlns="http://www.w3.org/2000/svg" xmlns:xlink="http://www.w3.org/1999/xlink" x="0px" y="0px"
	 viewBox="0 0 1024 780.5" style="enable-background:new 0 0 1024 780.5;" xml:space="preserve">
<style type="text/css">
	.st0{fill:#808181;}
</style>
<g>
	<path class="st0" d="M512,192c-110.1,0-199.3,89.2-199.3,199.3c0,99.9,73.6,182.4,169.5,196.8v-144h-49.3v-52.4h49.3v-34.9
		c0-57.7,28.1-83.1,76.1-83.1c23,0,35.1,1.7,40.9,2.5V322h-32.7c-20.4,0-27.5,19.3-27.5,41.1v28.6h59.7l-8.1,52.4H539v144.4
		c97.3-13.2,172.3-96.4,172.3-197.3C711.3,281.2,622.1,192,512,192L512,192z"/>
</g>
</svg>
