<?xml version="1.0" encoding="utf-8"?>
<!-- Generator: Adobe Illustrator 27.9.0, SVG Export Plug-In . SVG Version: 6.00 Build 0)  -->
<svg version="1.1" id="Layer_1" xmlns="http://www.w3.org/2000/svg" xmlns:xlink="http://www.w3.org/1999/xlink" x="0px" y="0px"
	 viewBox="0 0 1024 780.5" style="enable-background:new 0 0 1024 780.5;" xml:space="preserve">
<style type="text/css">
	.st0{fill:#7C376A;}
</style>
<g>
	<path class="st0" d="M512,227c53.2,0,59.5,0.2,80.5,1.2c19.4,0.9,29.9,4.1,37,6.9c9.3,3.6,15.9,7.9,22.9,14.9
		c7,7,11.3,13.6,14.9,22.9c2.7,7,6,17.6,6.9,37c1,21,1.2,27.3,1.2,80.5s-0.2,59.5-1.2,80.5c-0.9,19.4-4.1,29.9-6.9,37
		c-3.6,9.3-7.9,15.9-14.9,22.9c-7,7-13.6,11.3-22.9,14.9c-7,2.7-17.6,6-37,6.9c-21,1-27.3,1.2-80.5,1.2s-59.5-0.2-80.5-1.2
		c-19.4-0.9-29.9-4.1-37-6.9c-9.3-3.6-15.9-7.9-22.9-14.9c-7-7-11.3-13.6-14.9-22.9c-2.7-7-6-17.6-6.9-37c-1-21-1.2-27.3-1.2-80.5
		s0.2-59.5,1.2-80.5c0.9-19.4,4.1-29.9,6.9-37c3.6-9.3,7.9-15.9,14.9-22.9c7-7,13.6-11.3,22.9-14.9c7-2.7,17.6-6,37-6.9
		C452.5,227.2,458.8,227,512,227 M512,191.1c-54.1,0-60.9,0.2-82.1,1.2c-21.2,1-35.7,4.3-48.4,9.3c-13.1,5.1-24.2,11.9-35.3,23
		c-11.1,11.1-17.9,22.2-23,35.3c-4.9,12.7-8.3,27.2-9.3,48.4c-1,21.3-1.2,28-1.2,82.1s0.2,60.9,1.2,82.1c1,21.2,4.3,35.7,9.3,48.4
		c5.1,13.1,11.9,24.2,23,35.3c11.1,11.1,22.2,17.9,35.3,23c12.7,4.9,27.2,8.3,48.4,9.3c21.3,1,28,1.2,82.1,1.2s60.9-0.2,82.1-1.2
		c21.2-1,35.7-4.3,48.4-9.3c13.1-5.1,24.2-11.9,35.3-23c11.1-11.1,17.9-22.2,23-35.3c4.9-12.7,8.3-27.2,9.3-48.4
		c1-21.3,1.2-28,1.2-82.1s-0.2-60.9-1.2-82.1c-1-21.2-4.3-35.7-9.3-48.4c-5.1-13.1-11.9-24.2-23-35.3c-11.1-11.1-22.2-17.9-35.3-23
		c-12.7-4.9-27.2-8.3-48.4-9.3C572.9,191.3,566.1,191.1,512,191.1"/>
	<path class="st0" d="M512,288c-56.5,0-102.3,45.8-102.3,102.3S455.5,492.6,512,492.6s102.3-45.8,102.3-102.3S568.5,288,512,288
		 M512,456.6c-36.7,0-66.4-29.7-66.4-66.4s29.7-66.4,66.4-66.4c36.6,0,66.4,29.7,66.4,66.4S548.6,456.6,512,456.6"/>
	<path class="st0" d="M642.2,284c0,13.2-10.7,23.9-23.9,23.9c-13.2,0-23.9-10.7-23.9-23.9s10.7-23.9,23.9-23.9
		C631.5,260.1,642.2,270.8,642.2,284"/>
</g>
</svg>
