<?xml version="1.0" encoding="utf-8"?>
<!-- Generator: Adobe Illustrator 27.9.0, SVG Export Plug-In . SVG Version: 6.00 Build 0)  -->
<svg version="1.1" id="Layer_1" xmlns="http://www.w3.org/2000/svg" xmlns:xlink="http://www.w3.org/1999/xlink" x="0px" y="0px"
	 viewBox="0 0 1024 780.5" style="enable-background:new 0 0 1024 780.5;" xml:space="preserve">
<style type="text/css">
	.st0{fill:#7C376A;}
	.st1{fill-rule:evenodd;clip-rule:evenodd;fill:#FFFFFF;}
	.st2{fill:#FFFFFF;}
</style>
<g>
	<circle class="st0" cx="512" cy="390.2" r="184.9"/>
	<g>
		<path class="st1" d="M461.4,407.1h101.2c5.9,0,10.7,4.8,10.7,10.7l0,0c0,5.9-4.8,10.7-10.7,10.7H461.4c-5.9,0-10.7-4.8-10.7-10.7
			l0,0C450.7,411.9,455.5,407.1,461.4,407.1z"/>
		<path class="st1" d="M559.7,501.4l6.3-65.7c-1.1,0.2-2.2,0.3-3.3,0.3H461.4c-1.1,0-2.3-0.1-3.3-0.3l6.3,65.7
			c1,10.1,9.4,17.7,19.5,17.7h56.4C550.4,519.1,558.8,511.5,559.7,501.4L559.7,501.4L559.7,501.4z"/>
		<path class="st2" d="M497.8,276.4c1.3-5.3,1.7-10.6,1.3-15c3.5,2.6,8,6.6,11.9,11c-3.5,1.7-7.1,3.5-10.1,6.2
			C500.1,277.7,499.2,277.3,497.8,276.4L497.8,276.4z M515.9,289.2c4.8-3.1,9.3-5.7,13.6-8c0.4-4.8,2.2-9.3,4-13.2
			c-7.5,2.6-19,6.2-28.7,12.8C508.8,283.5,512.3,286.1,515.9,289.2L515.9,289.2z M544.6,323.1c-1.3-6.6-4-14.1-4.4-21.6
			c-0.9-7.5,0-15,2.6-21.6c-6.2,3.1-15,7.1-23.3,12.3c6.6,6.6,12.8,14.1,16.3,23.3c6.6,16.3,0.9,33.1-8,42.3
			c-2.6,2.6-5.3,5.3-8.4,7.1c3.1,0,5.7,0,8.4-0.9c9.7-2.6,15.4-8.8,18.1-15.9C548.1,341.1,547.2,332.8,544.6,323.1L544.6,323.1z
			 M524.7,355.3c8-8.4,12.8-23.8,7.1-37.9c-9.7-23.8-36.6-37.4-50.7-44.9c2.2,6.6,3.5,15,2.6,23.3c-0.4,8.4-3.1,16.7-4.4,23.8
			c-2.2,10.6-3.5,19.9-1.3,27.8c2.2,8,8,14.5,18.1,17.2C505.3,366.7,517.2,363.6,524.7,355.3L524.7,355.3z M516,422h-10.4l1.9-51.2
			h5.6L516,422L516,422z"/>
	</g>
</g>
</svg>
