<?xml version="1.0" encoding="utf-8"?>
<!-- Generator: Adobe Illustrator 27.9.0, SVG Export Plug-In . SVG Version: 6.00 Build 0)  -->
<svg version="1.1" id="Layer_1" xmlns="http://www.w3.org/2000/svg" xmlns:xlink="http://www.w3.org/1999/xlink" x="0px" y="0px"
	 viewBox="0 0 1024 780.5" style="enable-background:new 0 0 1024 780.5;" xml:space="preserve">
<style type="text/css">
	.st0{fill:#7C376A;}
	.st1{fill:#FFFFFF;}
</style>
<g>
	<circle class="st0" cx="512" cy="390.2" r="184.9"/>
	<g>
		<g>
			<path class="st1" d="M590.1,331.3v-22.5c0-7.9-6.4-14.3-14.3-14.3H448.1c-7.8,0-14.3,6.4-14.3,14.3v22.5H590.1L590.1,331.3z
				 M568.9,305.9c3.8,0,7,3.1,7,7s-3.2,7-7,7c-3.8,0-7-3.2-7-7C562,308.9,565.2,305.9,568.9,305.9L568.9,305.9z M546.4,305.9
				c3.8,0,7,3.1,7,7s-3.2,7-7,7c-3.8,0-7-3.2-7-7C539.5,309,542.7,305.9,546.4,305.9z M455.1,305.9h44.6c3.9,0,7,3.1,7,7
				c0,3.9-3.1,7-7,7h-44.6c-3.9,0-7-3.1-7-7C448.1,309,451.2,305.9,455.1,305.9z"/>
			<path class="st1" d="M433.9,336.9v127c0,7.9,6.4,14.3,14.3,14.3h127.8c7.8,0,14.3-6.4,14.3-14.3v-127H433.9L433.9,336.9z
				 M512,451c-25.5,0-46.3-20.7-46.3-46.3c0-25.5,20.5-46.3,46.3-46.3c25.8,0,46.3,20.2,46.3,46.3C558.3,430.8,536.8,451,512,451z"
				/>
			<path class="st1" d="M547,384.3c-3.2,0.3-6.4,0.9-9.6,1.7c-17.4,4.7-33.4,16.9-52.4,17.2c-4.6,0-9.2-0.6-13.5-1.4
				c0,0.9-0.1,1.9-0.1,2.9c0,22.4,18.2,40.6,40.6,40.6c22.4,0,40.6-17.7,40.6-40.6C552.6,397.6,550.7,390.5,547,384.3L547,384.3
				L547,384.3z M492.2,421.6c-2.4,0-4.3-1.9-4.3-4.3s1.9-4.3,4.3-4.3s4.3,1.9,4.3,4.3S494.6,421.6,492.2,421.6z M513.2,432.9
				c-2.4,0-4.3-1.9-4.3-4.3c0-2.4,1.9-4.3,4.3-4.3c2.4,0,4.3,1.9,4.3,4.3C517.5,431,515.6,432.9,513.2,432.9z M530.9,410.9
				c-2.4,0-4.3-1.9-4.3-4.3s1.9-4.3,4.3-4.3c2.4,0,4.3,1.9,4.3,4.3S533.2,410.9,530.9,410.9z"/>
		</g>
		<path class="st1" d="M450.5,470h122.6v12.1c0,2.2-1.7,3.9-3.9,3.9H454.4c-2.2,0-3.9-1.7-3.9-3.9L450.5,470L450.5,470L450.5,470z"
			/>
	</g>
</g>
</svg>
