<?xml version="1.0" encoding="UTF-8"?>
<svg id="Layer_1" data-name="Layer 1" xmlns="http://www.w3.org/2000/svg" viewBox="0 0 1024 780.49">
  <defs>
    <style>
      .cls-1 {
        fill: #fff;
        stroke-width: 0px;
      }
    </style>
  </defs>
  <path class="cls-1" d="m282.07,397.48l4.17,22.86h0c.13.77-.19,1.54-.82,1.99-.63.45-1.46.51-2.14.15l-20.36-11.22-20.82,10.99c-.68.38-1.51.32-2.14-.13-.63-.46-.93-1.24-.78-2l4.41-22.82-16.93-16.05h0c-.56-.53-.77-1.34-.53-2.07.24-.73.88-1.27,1.65-1.36l23.19-2.92,10.2-20.91h0c.33-.71,1.03-1.16,1.81-1.16s1.48.45,1.81,1.15l9.97,21.01,23.19,3.15h0c.77.1,1.41.63,1.64,1.36.24.73.03,1.54-.53,2.07l-16.97,15.91Zm-19.15-58.25c-13.53,0-26.5,5.38-36.07,14.94-9.57,9.57-14.94,22.54-14.94,36.07s5.38,26.5,14.94,36.07c9.57,9.57,22.54,14.94,36.07,14.94s26.5-5.38,36.07-14.94c9.57-9.57,14.94-22.54,14.94-36.07s-5.38-26.5-14.94-36.07c-9.57-9.57-22.54-14.94-36.07-14.94h0Z"/>
  <path class="cls-1" d="m406.61,397.48l4.17,22.86h0c.13.77-.19,1.54-.82,1.99-.63.45-1.46.51-2.14.15l-20.36-11.22-20.82,10.99c-.68.38-1.51.32-2.14-.13-.63-.46-.93-1.24-.78-2l4.41-22.82-16.93-16.05h0c-.56-.53-.77-1.34-.53-2.07.24-.73.88-1.27,1.65-1.36l23.19-2.92,10.2-20.91h0c.33-.71,1.03-1.16,1.81-1.16s1.48.45,1.81,1.15l9.97,21.01,23.19,3.15h0c.77.1,1.41.63,1.64,1.36s.03,1.54-.53,2.07l-16.97,15.91Zm-19.15-58.25c-13.53,0-26.5,5.38-36.07,14.94-9.57,9.57-14.94,22.54-14.94,36.07s5.38,26.5,14.94,36.07c9.57,9.57,22.54,14.94,36.07,14.94s26.5-5.38,36.07-14.94c9.57-9.57,14.94-22.54,14.94-36.07s-5.38-26.5-14.94-36.07c-9.57-9.57-22.54-14.94-36.07-14.94h0Z"/>
  <path class="cls-1" d="m531.15,397.48l4.17,22.86h0c.13.77-.19,1.54-.82,1.99-.63.45-1.46.51-2.14.15l-20.36-11.22-20.82,10.99c-.68.38-1.51.32-2.14-.13-.63-.46-.93-1.24-.78-2l4.41-22.82-16.93-16.05h0c-.56-.53-.77-1.34-.53-2.07.24-.73.88-1.27,1.65-1.36l23.19-2.92,10.2-20.91h0c.33-.71,1.03-1.16,1.81-1.16s1.48.45,1.81,1.15l9.97,21.01,23.19,3.15h0c.77.1,1.41.63,1.64,1.36s.03,1.54-.53,2.07l-16.97,15.91Zm-19.15-58.25c-13.53,0-26.5,5.38-36.07,14.94-9.57,9.57-14.94,22.54-14.94,36.07s5.38,26.5,14.94,36.07c9.57,9.57,22.54,14.94,36.07,14.94s26.5-5.38,36.07-14.94c9.57-9.57,14.94-22.54,14.94-36.07s-5.38-26.5-14.94-36.07c-9.57-9.57-22.54-14.94-36.07-14.94h0Z"/>
  <path class="cls-1" d="m655.7,397.48l4.17,22.86h0c.13.77-.19,1.54-.82,1.99-.63.45-1.46.51-2.14.15l-20.36-11.22-20.82,10.99c-.68.38-1.51.32-2.14-.13-.63-.46-.93-1.24-.78-2l4.41-22.82-16.93-16.05h0c-.56-.53-.77-1.34-.53-2.07.24-.73.88-1.27,1.65-1.36l23.19-2.92,10.2-20.91h0c.33-.71,1.03-1.16,1.81-1.16s1.48.45,1.81,1.15l9.97,21.01,23.19,3.15h0c.77.1,1.41.63,1.64,1.36s.03,1.54-.53,2.07l-16.97,15.91Zm-19.15-58.25c-13.53,0-26.5,5.38-36.07,14.94-9.57,9.57-14.94,22.54-14.94,36.07s5.38,26.5,14.94,36.07c9.57,9.57,22.54,14.94,36.07,14.94s26.5-5.38,36.07-14.94c9.57-9.57,14.94-22.54,14.94-36.07s-5.38-26.5-14.94-36.07c-9.57-9.57-22.54-14.94-36.07-14.94h0Z"/>
  <path class="cls-1" d="m780.24,397.48l4.17,22.86h0c.13.77-.19,1.54-.82,1.99-.63.45-1.46.51-2.14.15l-20.36-11.22-20.82,10.99c-.68.38-1.51.32-2.14-.13-.63-.46-.93-1.24-.78-2l4.41-22.82-16.93-16.05h0c-.56-.53-.77-1.34-.53-2.07.24-.73.88-1.27,1.65-1.36l23.19-2.92,10.2-20.91h0c.33-.71,1.03-1.16,1.81-1.16s1.48.45,1.81,1.15l9.97,21.01,23.19,3.15h0c.77.1,1.41.63,1.64,1.36.24.73.03,1.54-.53,2.07l-16.97,15.91Zm-19.15-58.25c-13.53,0-26.5,5.38-36.07,14.94-9.57,9.57-14.94,22.54-14.94,36.07s5.38,26.5,14.94,36.07c9.57,9.57,22.54,14.94,36.07,14.94s26.5-5.38,36.07-14.94c9.57-9.57,14.94-22.54,14.94-36.07s-5.38-26.5-14.94-36.07c-9.57-9.57-22.54-14.94-36.07-14.94h0Z"/>
</svg>