<?xml version="1.0" encoding="UTF-8"?>
<svg id="Layer_1" data-name="Layer 1" xmlns="http://www.w3.org/2000/svg" viewBox="0 0 1024 780.49">
  <defs>
    <style>
      .cls-1 {
        fill-rule: evenodd;
      }

      .cls-1, .cls-2, .cls-3, .cls-4 {
        stroke-width: 0px;
      }

      .cls-1, .cls-4 {
        fill: #fff;
      }

      .cls-2 {
        fill: #7b386c;
      }

      .cls-3 {
        fill: #bd84b5;
      }
    </style>
  </defs>
  <path class="cls-3" d="m743.62,390.23c0,127.92-103.71,231.63-231.63,231.63s-231.6-103.71-231.6-231.63,103.69-231.6,231.6-231.6c111.32,0,204.29,78.5,226.55,183.19.47,2.22.91,4.45,1.32,6.69.52,2.79.98,5.6,1.39,8.43.18,1.26.35,2.52.52,3.78,1.22,9.65,1.86,19.52,1.86,29.51Z"/>
  <g>
    <path class="cls-2" d="m380.42,440.45c1.58-.74,3.24-1.38,5.05-1.71,1.75-.34,3.54-.39,5.32-.28l-14.95-81.36c-.53-2.88-3.28-4.76-6.16-4.22-2.87.53-4.76,3.29-4.22,6.17l14.96,81.39h0Z"/>
    <path class="cls-2" d="m375.12,480.15c-.35,11.07-2.9,22.03-7.63,32.18l-5.86,12.56c-.05.1-.02.21-.05.32-.08.23-.11.47-.12.72,0,.15-.04.31-.01.46,0,.04-.01.08,0,.13.29,1.51,1.98,2.69,4.75,3.49,2.96.85,7.22,1.26,12.25,1.27l3.21-25.97,1.71,25.84c4.67-.23,9.84-.8,15.29-1.68l-.6-29.58,8.15,28.17c6.14-1.3,11.81-2.88,16.64-4.59l-3.81-17.86,8.45,16.35c7.14-2.94,12.15-6.02,12.93-8.73h0s0-.02,0-.02c.11-.38-.28-.89-.34-1.25,0-.03-.43-.19-.44-.22-.03-.18-.13-.33-.2-.48-.1-.2-.19-.38-.33-.56-.08-.1-.11-.23-.19-.31l-10.02-9.57c-8.1-7.74-14.43-17.03-18.78-27.22l-35.02,6.56h0Z"/>
    <path class="cls-2" d="m386.44,443.92c-8.6,1.61-14.27,9.9-12.66,18.51.77,4.09,1.2,8.21,1.35,12.33l33.03-6.2c-1.36-3.9-2.44-7.9-3.21-12-.78-4.12-3.16-7.78-6.63-10.15-1.41-.95-2.94-1.67-4.56-2.14-2.35-.68-4.87-.81-7.32-.35h0Z"/>
    <path class="cls-2" d="m346.44,521.15c.75-2.59,3.46-4.08,6.05-3.33,2.59.75,4.08,3.46,3.33,6.05-.75,2.59-3.46,4.08-6.05,3.33-2.59-.75-4.08-3.46-3.33-6.05"/>
    <path class="cls-2" d="m347.79,505.96c.75-2.59,3.46-4.08,6.05-3.33,2.59.75,4.08,3.46,3.33,6.05-.75,2.59-3.46,4.08-6.05,3.33-2.59-.75-4.08-3.46-3.33-6.05"/>
    <path class="cls-2" d="m329.83,519.25c.75-2.59,3.46-4.08,6.05-3.33,2.59.75,4.08,3.46,3.33,6.05-.75,2.59-3.46,4.08-6.05,3.33-2.59-.75-4.08-3.46-3.33-6.05"/>
  </g>
  <path class="cls-4" d="m477.04,387.87c0,10.38-3.18,18.99-9.54,25.82-6.36,6.83-14.23,10.25-23.59,10.25s-16.4-3.14-22.42-9.41c-6.02-6.27-9.03-14.25-9.03-23.92,0-10.38,3.18-18.99,9.54-25.82,6.36-6.83,14.23-10.25,23.59-10.25s16.4,3.13,22.42,9.38c6.02,6.26,9.03,14.24,9.03,23.94Zm-14,1.47c0-7.07-1.81-12.8-5.43-17.2-3.62-4.4-8.08-6.59-13.39-6.59-4.94,0-9.13,2.22-12.58,6.65-3.45,4.43-5.17,10.03-5.17,16.79s1.82,12.76,5.46,17.17,8.09,6.62,13.37,6.62c4.94,0,9.13-2.22,12.58-6.67,3.45-4.45,5.17-10.04,5.17-16.76Z"/>
  <path class="cls-4" d="m506.12,390.12l-1.99,8.02c-1.69-.69-3.41-1.03-5.14-1.03-3.36,0-5.58,1.51-6.65,4.53,0,9.12.07,16.14.21,21.06h-9.12c.39-6.88.58-12.51.58-16.87,0-5.44-.57-10.6-1.71-15.47l8.75-.96c.39,2.51.58,3.99.58,4.42h.55c2.1-3.22,4.91-4.84,8.41-4.84,1.65,0,3.5.38,5.56,1.13Z"/>
  <path class="cls-4" d="m544.76,385.39l-.75,6.38c-3.57,0-5.79.51-6.68,1.54v.45c1.35,1.71,2.02,3.63,2.02,5.76,0,3.27-1.2,6.06-3.62,8.37-2.41,2.31-6.01,3.46-10.79,3.46-2.33,0-4.24-.18-5.72-.55-1.21.55-1.82,1.27-1.82,2.16,0,1.39.73,2.37,2.18,2.93,1.45.56,4.83.84,10.14.84,9.17,0,13.75,3.12,13.75,9.36,0,4.39-1.91,7.88-5.72,10.46-3.82,2.58-8.46,3.88-13.92,3.88-10.7,0-16.05-3.36-16.05-10.08,0-2.08.6-3.85,1.8-5.3,1.2-1.45,2.59-2.34,4.17-2.66v-.51c-1.92-1.21-2.88-3.06-2.88-5.56s1.31-4.62,3.94-6.31v-.48c-3.7-1.85-5.56-4.74-5.56-8.68,0-3.36,1.28-6.17,3.83-8.44,2.55-2.26,6.49-3.39,11.81-3.39,3.63,0,6.58.69,8.85,2.06h.48c.66-4.32,2.88-6.48,6.65-6.48,1.49,0,2.79.26,3.91.79Zm-9.77,43.24c0-1.69-.65-2.91-1.94-3.67-1.29-.75-3.52-1.13-6.67-1.13-2.56,0-5.14-.11-7.75-.34-2.01,1.19-3.02,2.96-3.02,5.32,0,4.39,2.93,6.58,8.78,6.58,3.27,0,5.85-.62,7.75-1.85,1.9-1.23,2.85-2.87,2.85-4.9Zm-4.05-28.22c0-2.06-.66-3.62-1.99-4.7-1.33-1.07-2.85-1.61-4.56-1.61s-3.22.52-4.51,1.56-1.94,2.57-1.94,4.58.66,3.58,1.99,4.63c1.33,1.05,2.87,1.58,4.63,1.58,1.67,0,3.15-.51,4.44-1.53s1.94-2.52,1.94-4.51Z"/>
  <path class="cls-4" d="m577.13,422.67l-8.09.27c-.37-.96-.55-1.83-.55-2.61h-.44c-2.51,2.15-5.91,3.22-10.19,3.22-2.86,0-5.23-.79-7.11-2.38-1.89-1.59-2.83-3.7-2.83-6.33,0-3.47,1.47-6.32,4.41-8.54s8.09-3.39,15.45-3.53c.05-.41.07-.8.07-1.17,0-2.47-.59-4.1-1.78-4.89-1.19-.79-3.38-1.18-6.55-1.18-3.45,0-6.82.46-10.11,1.37l.75-6.31c3.11-1.07,7.5-1.61,13.17-1.61,4.14,0,7.33.87,9.58,2.61,2.25,1.74,3.38,4.78,3.38,9.12,0,.96-.04,2.71-.12,5.25-.08,2.54-.12,4.23-.12,5.08,0,4.73.37,8.61,1.1,11.63Zm-9.15-7.13c-.14-3.09-.21-5.75-.21-7.99-7.8,0-11.7,1.98-11.7,5.93,0,2.72,1.71,4.08,5.14,4.08,2.7,0,4.95-.67,6.76-2.02Z"/>
  <path class="cls-4" d="m614.72,422.7h-9.12c.5-5.78.75-11.64.75-17.56,0-3.59-.53-6.02-1.59-7.3-1.06-1.28-2.68-1.92-4.85-1.92-2.61,0-5.08.89-7.41,2.67.11,8.92.18,16.95.18,24.11h-9.23c.41-7.16.62-12.78.62-16.87,0-5.46-.56-10.62-1.68-15.47l8.78-.96.58,3.63h.55c3.13-2.7,6.74-4.05,10.81-4.05,3.52,0,6.34.83,8.45,2.49,2.11,1.66,3.17,4.72,3.17,9.17,0,.66-.03,1.55-.08,2.66-.06,1.11-.08,2.25-.08,3.41,0,3.09.05,8.41.17,15.98Z"/>
  <path class="cls-4" d="m632.07,422.7h-9.22c.32-4.73.48-10.16.48-16.29s-.39-11.41-1.17-15.98l9.88-.99c-.3,4.44-.45,10.09-.45,16.97,0,5.88.16,11.3.48,16.29Zm1.58-42.93c0,1.55-.53,2.91-1.59,4.08-1.06,1.17-2.55,1.75-4.44,1.75-1.6,0-2.85-.5-3.75-1.51-.9-1.01-1.35-2.22-1.35-3.63,0-1.55.53-2.9,1.59-4.05,1.06-1.14,2.55-1.71,4.47-1.71,1.62,0,2.88.5,3.76,1.49.88.99,1.32,2.19,1.32,3.58Z"/>
  <path class="cls-4" d="m664.62,415.84l-.18,6.86h-25.92l.48-6.55c1.14-1.03,3.83-4.21,8.06-9.53,4.53-5.69,6.79-8.95,6.79-9.77v-.55c-5.44,0-10.45.19-15.02.58l.17-6.76h24.9l-.51,6.58c-1.44,1.58-4.02,4.78-7.72,9.6-4.32,5.62-6.48,8.85-6.48,9.67v.51c5.19,0,10.33-.22,15.43-.65Z"/>
  <path class="cls-4" d="m698.25,422.67l-8.09.27c-.37-.96-.55-1.83-.55-2.61h-.44c-2.51,2.15-5.91,3.22-10.19,3.22-2.86,0-5.23-.79-7.11-2.38-1.89-1.59-2.83-3.7-2.83-6.33,0-3.47,1.47-6.32,4.41-8.54,2.94-2.22,8.09-3.39,15.45-3.53.05-.41.07-.8.07-1.17,0-2.47-.59-4.1-1.78-4.89-1.19-.79-3.38-1.18-6.55-1.18-3.45,0-6.82.46-10.11,1.37l.75-6.31c3.11-1.07,7.5-1.61,13.17-1.61,4.14,0,7.33.87,9.58,2.61,2.25,1.74,3.38,4.78,3.38,9.12,0,.96-.04,2.71-.12,5.25-.08,2.54-.12,4.23-.12,5.08,0,4.73.37,8.61,1.1,11.63Zm-9.15-7.13c-.14-3.09-.21-5.75-.21-7.99-7.8,0-11.7,1.98-11.7,5.93,0,2.72,1.71,4.08,5.14,4.08,2.7,0,4.95-.67,6.76-2.02Z"/>
  <path class="cls-4" d="m727.47,390.12l-1.99,8.02c-1.69-.69-3.41-1.03-5.14-1.03-3.36,0-5.58,1.51-6.65,4.53,0,9.12.07,16.14.21,21.06h-9.12c.39-6.88.59-12.51.59-16.87,0-5.44-.57-10.6-1.71-15.47l8.74-.96c.39,2.51.59,3.99.59,4.42h.55c2.1-3.22,4.9-4.84,8.4-4.84,1.65,0,3.5.38,5.56,1.13Z"/>
  <g>
    <path class="cls-4" d="m466.8,459.25c0,5.46-2.03,9.5-6.08,12.11-4.06,2.61-9.03,3.91-14.93,3.91-1.07,0-1.84-.02-2.3-.07,0,4.3.13,9.97.38,17.01h-9.64c.3-6.61.45-14.39.45-23.35,0-8.23-.15-15.33-.45-21.3h5.97c.85,0,2.47-.03,4.87-.1,2.4-.07,4.48-.1,6.24-.1,4.34,0,8.02.98,11.01,2.95,2.99,1.97,4.49,4.95,4.49,8.95Zm-8.85,1.89c0-4.89-3.25-7.34-9.74-7.34-1.62,0-3.34.17-5.14.51.25,4.32.38,9.21.38,14.68.57.05,1.23.07,1.99.07,8.34,0,12.51-2.64,12.51-7.92Z"/>
    <path class="cls-4" d="m505.17,475.16c0,5.76-1.77,10.26-5.31,13.51s-7.72,4.87-12.52,4.87-8.49-1.48-11.76-4.44c-3.27-2.96-4.9-7.13-4.9-12.5,0-5.78,1.78-10.31,5.35-13.58,3.57-3.27,7.75-4.9,12.55-4.9,4.55,0,8.46,1.49,11.71,4.48,3.26,2.98,4.88,7.17,4.88,12.57Zm-8.95,1.03c0-3.31-.78-6.1-2.33-8.35-1.55-2.25-3.58-3.38-6.07-3.38s-4.4,1.05-5.91,3.15c-1.52,2.1-2.28,4.73-2.28,7.89,0,3.31.78,6.1,2.33,8.35,1.55,2.25,3.57,3.38,6.07,3.38s4.4-1.05,5.92-3.15c1.52-2.1,2.28-4.73,2.28-7.89Z"/>
    <path class="cls-4" d="m533.98,459.63l-1.99,8.02c-1.69-.69-3.41-1.03-5.14-1.03-3.36,0-5.58,1.51-6.65,4.53,0,9.12.07,16.14.21,21.06h-9.12c.39-6.88.58-12.51.58-16.87,0-5.44-.57-10.6-1.71-15.47l8.74-.96c.39,2.51.58,3.99.58,4.42h.55c2.1-3.22,4.9-4.84,8.4-4.84,1.65,0,3.5.38,5.56,1.13Z"/>
    <path class="cls-4" d="m583.91,480.03c0,8.94-6.42,13.41-19.27,13.41-4.37,0-8.42-.53-12.17-1.58l1.68-7.65c3.7,1.28,7.2,1.92,10.49,1.92,3.66,0,6.29-.35,7.89-1.06,1.6-.71,2.4-1.9,2.4-3.57s-.75-3.2-2.26-4.39c-1.3-1.05-3.94-2.42-7.92-4.12-3.61-1.55-6.3-3.25-8.06-5.08-2.22-2.31-3.33-5.16-3.33-8.54,0-3.93,1.46-7.01,4.37-9.22,2.92-2.22,7.11-3.33,12.57-3.33,4.48,0,8.24.38,11.28,1.13l-1.27,7.61c-3.09-1.12-6.42-1.68-10.01-1.68-5.4,0-8.09,1.44-8.09,4.32,0,1.53.63,2.78,1.89,3.74,1.1.82,3.49,1.98,7.17,3.46,3.91,1.58,6.84,3.31,8.78,5.21,2.58,2.54,3.88,5.67,3.88,9.4Z"/>
    <path class="cls-4" d="m600.09,492.2h-9.22c.32-4.73.48-10.16.48-16.29s-.39-11.41-1.17-15.98l9.88-.99c-.3,4.44-.45,10.09-.45,16.97,0,5.88.16,11.3.48,16.29Zm1.58-42.93c0,1.55-.53,2.91-1.6,4.08-1.06,1.17-2.54,1.75-4.44,1.75-1.6,0-2.85-.5-3.75-1.51-.91-1.01-1.36-2.22-1.36-3.63,0-1.55.53-2.9,1.59-4.05,1.07-1.14,2.56-1.71,4.48-1.71,1.62,0,2.87.5,3.75,1.49.88.99,1.32,2.19,1.32,3.58Z"/>
  </g>
  <path class="cls-2" d="m379.9,343.05v-43.43c0-2.29,1.85-4.14,4.14-4.14h16.8c2.29,0,4.14,1.85,4.14,4.14v17.89l-25.08,25.54Z"/>
  <path class="cls-2" d="m392.19,288.19l23.21-23.21c23.28-23.29-6.77-46.73-23.21-23.21-16.43-23.52-46.48-.08-23.21,23.21l23.21,23.21Z"/>
  <circle class="cls-4" cx="451.23" cy="383.24" r="3.09"/>
  <circle class="cls-4" cx="438.26" cy="383.24" r="3.09"/>
  <path class="cls-4" d="m439.25,374.59h-.13v-1.83h.14c3.4,0,5.55-.83,6.41-2.48,1.71-3.29-1.86-9.52-3.38-11.64l1.49-1.07c.25.35,6.09,8.59,3.52,13.55-1.19,2.3-3.9,3.47-8.04,3.47Z"/>
  <path class="cls-1" d="m450.85,403.11c0,.12,0,.24-.01.35,1.93-.59,3.34-2.39,3.34-4.51,0-2.6-2.11-4.71-4.71-4.71-.87,0-1.69.24-2.4.65-.66.45-1.46.71-2.32.71s-1.66-.26-2.32-.71c-.7-.42-1.52-.65-2.4-.65-2.6,0-4.71,2.11-4.71,4.71,0,2.23,1.55,4.1,3.63,4.59-.01-.14-.02-.28-.02-.43,0-1.86,1.22-3.44,2.91-3.97.39-1.24,1.55-2.13,2.91-2.13s2.47.86,2.88,2.05c1.84.43,3.22,2.08,3.22,4.05h0Zm-9.14-3.33c-1.31.54-2.23,1.83-2.23,3.33,0,1.99,1.61,3.61,3.61,3.61h3.61c1.99,0,3.61-1.61,3.61-3.61,0-1.61-1.06-2.98-2.52-3.44.02.13.02.26.02.39,0,.15-.01.3-.03.45.67.31,1.14.98,1.14,1.77,0,1.07-.87,1.94-1.94,1.94h-4.16c-1.07,0-1.94-.87-1.94-1.94,0-.68.35-1.29.89-1.63-.04-.19-.06-.39-.06-.59,0-.1,0-.19.01-.28h0Zm.21,1.43c-.31.25-.5.64-.5,1.07,0,.76.62,1.39,1.39,1.39h4.16c.76,0,1.39-.62,1.39-1.39,0-.52-.29-.98-.72-1.22-.41,1.19-1.55,2.05-2.88,2.05s-2.37-.79-2.83-1.9h0Zm2.83,1.34c1.38,0,2.5-1.12,2.5-2.5s-1.12-2.5-2.5-2.5-2.5,1.12-2.5,2.5,1.12,2.5,2.5,2.5Z"/>
  <path class="cls-2" d="m741.24,356.94c-.4.07-.8.1-1.22.1h-214.72c-8.29,0-16.1-3.21-21.99-9.03l-57.9-57.2-134.19,134.19c-1.49,1.49-3.43,2.23-5.38,2.23s-3.9-.74-5.38-2.23c-2.98-2.97-2.98-7.79,0-10.76l136.75-136.75c4.5-4.49,11.82-4.5,16.33-.05l60.46,59.74c3.03,2.99,7.04,4.63,11.3,4.63h213.23c.47,2.22.91,4.45,1.32,6.69.52,2.79.98,5.6,1.39,8.43Z"/>
</svg>