<?xml version="1.0" encoding="UTF-8"?>
<svg id="Layer_1" data-name="Layer 1" xmlns="http://www.w3.org/2000/svg" viewBox="0 0 1024 780.49">
  <defs>
    <style>
      .cls-1 {
        fill: none;
      }

      .cls-1, .cls-2, .cls-3, .cls-4, .cls-5, .cls-6 {
        stroke-width: 0px;
      }

      .cls-2 {
        fill: #eaeaea;
        opacity: .2;
      }

      .cls-3 {
        fill-rule: evenodd;
      }

      .cls-3, .cls-6 {
        fill: #fff;
      }

      .cls-4 {
        fill: #7c376a;
      }

      .cls-5 {
        fill: #bd84b5;
      }
    </style>
  </defs>
  <circle class="cls-2" cx="512" cy="390.24" r="270.36"/>
  <g>
    <path class="cls-5" d="m696.45,390.23c0,101.87-82.59,184.46-184.46,184.46s-184.44-82.59-184.44-184.46,82.57-184.44,184.44-184.44c88.65,0,162.69,62.52,180.41,145.88.38,1.77.72,3.54,1.05,5.33.41,2.22.78,4.46,1.1,6.72.15,1,.28,2,.41,3.01.97,7.69,1.48,15.55,1.48,23.5Z"/>
    <g>
      <path class="cls-4" d="m407.22,430.22c1.26-.59,2.58-1.1,4.02-1.36,1.39-.27,2.82-.31,4.23-.22l-11.9-64.79c-.42-2.29-2.62-3.79-4.91-3.36-2.28.42-3.79,2.62-3.36,4.91l11.91,64.82h0Z"/>
      <path class="cls-4" d="m403,461.84c-.28,8.82-2.31,17.54-6.07,25.63l-4.67,10c-.04.08-.01.17-.04.26-.06.18-.08.38-.09.57,0,.12-.03.25,0,.37,0,.03-.01.07,0,.1.23,1.2,1.58,2.14,3.78,2.78,2.35.68,5.75,1.01,9.76,1.01l2.56-20.69,1.36,20.57c3.72-.19,7.83-.64,12.18-1.34l-.48-23.55,6.49,22.44c4.89-1.04,9.4-2.3,13.25-3.66l-3.03-14.22,6.73,13.02c5.68-2.34,9.67-4.79,10.3-6.95h0s0-.01,0-.01c.09-.31-.22-.71-.27-1,0-.02-.35-.15-.35-.18-.03-.14-.1-.26-.16-.38-.08-.16-.15-.31-.26-.45-.06-.08-.09-.18-.15-.25l-7.98-7.62c-6.45-6.16-11.49-13.56-14.95-21.67l-27.89,5.23h0Z"/>
      <path class="cls-4" d="m412.01,432.99c-6.85,1.29-11.36,7.89-10.09,14.74.61,3.25.96,6.54,1.07,9.82l26.3-4.94c-1.08-3.11-1.94-6.29-2.56-9.55-.62-3.28-2.52-6.2-5.28-8.09-1.12-.76-2.34-1.33-3.63-1.7-1.87-.54-3.88-.64-5.83-.28h0Z"/>
      <path class="cls-4" d="m380.16,494.49c.6-2.06,2.75-3.25,4.82-2.66,2.06.6,3.25,2.75,2.66,4.82-.6,2.06-2.75,3.25-4.82,2.66-2.06-.6-3.25-2.75-2.66-4.82"/>
      <path class="cls-4" d="m381.23,482.39c.6-2.06,2.75-3.25,4.82-2.66,2.06.6,3.25,2.75,2.66,4.82-.6,2.06-2.75,3.25-4.82,2.66-2.06-.6-3.25-2.75-2.66-4.82"/>
      <path class="cls-4" d="m366.93,492.98c.6-2.06,2.75-3.25,4.82-2.66s3.25,2.75,2.66,4.82c-.6,2.06-2.75,3.25-4.82,2.66-2.06-.6-3.25-2.75-2.66-4.82"/>
    </g>
    <path class="cls-6" d="m484.16,388.35c0,8.27-2.53,15.12-7.59,20.56-5.06,5.44-11.33,8.16-18.79,8.16s-13.06-2.5-17.85-7.49c-4.79-5-7.19-11.34-7.19-19.05,0-8.27,2.53-15.12,7.59-20.56,5.06-5.44,11.33-8.16,18.79-8.16s13.06,2.49,17.85,7.47c4.79,4.98,7.19,11.34,7.19,19.07Zm-11.15,1.17c0-5.63-1.45-10.19-4.33-13.69-2.88-3.5-6.44-5.25-10.66-5.25-3.93,0-7.27,1.76-10.02,5.29-2.75,3.53-4.12,7.98-4.12,13.37s1.45,10.16,4.34,13.67c2.9,3.51,6.45,5.27,10.65,5.27,3.93,0,7.27-1.77,10.02-5.31,2.75-3.54,4.12-7.99,4.12-13.35Z"/>
    <path class="cls-6" d="m507.32,390.15l-1.58,6.39c-1.35-.55-2.71-.82-4.1-.82-2.68,0-4.44,1.2-5.3,3.6,0,7.26.05,12.85.16,16.77h-7.26c.31-5.48.46-9.96.46-13.44,0-4.33-.46-8.44-1.37-12.32l6.97-.76c.31,2,.46,3.18.46,3.52h.44c1.67-2.57,3.91-3.85,6.69-3.85,1.31,0,2.79.3,4.42.9Z"/>
    <path class="cls-6" d="m538.09,386.38l-.6,5.08c-2.84,0-4.61.41-5.32,1.23v.36c1.07,1.37,1.61,2.89,1.61,4.59,0,2.6-.96,4.82-2.88,6.66-1.92,1.84-4.79,2.76-8.59,2.76-1.86,0-3.37-.15-4.56-.44-.96.44-1.45,1.01-1.45,1.72,0,1.11.58,1.89,1.74,2.33,1.16.45,3.85.67,8.07.67,7.3,0,10.95,2.49,10.95,7.46,0,3.5-1.52,6.27-4.56,8.33-3.04,2.06-6.74,3.09-11.09,3.09-8.52,0-12.78-2.68-12.78-8.03,0-1.66.48-3.06,1.43-4.22s2.06-1.86,3.32-2.12v-.41c-1.53-.96-2.29-2.44-2.29-4.42s1.04-3.68,3.14-5.02v-.38c-2.95-1.47-4.42-3.78-4.42-6.91,0-2.68,1.02-4.92,3.05-6.72,2.03-1.8,5.16-2.7,9.41-2.7,2.89,0,5.24.55,7.05,1.64h.38c.53-3.44,2.29-5.16,5.3-5.16,1.18,0,2.22.21,3.11.63Zm-7.78,34.44c0-1.35-.52-2.32-1.54-2.92-1.03-.6-2.8-.9-5.31-.9-2.04,0-4.1-.09-6.17-.27-1.6.95-2.4,2.36-2.4,4.23,0,3.5,2.33,5.24,6.99,5.24,2.6,0,4.66-.49,6.17-1.47s2.27-2.28,2.27-3.91Zm-3.22-22.47c0-1.64-.53-2.89-1.58-3.74-1.06-.86-2.27-1.28-3.64-1.28s-2.56.41-3.59,1.24-1.54,2.04-1.54,3.65.53,2.85,1.58,3.69c1.06.84,2.29,1.26,3.69,1.26,1.33,0,2.51-.41,3.53-1.22s1.54-2.01,1.54-3.59Z"/>
    <path class="cls-6" d="m563.87,416.06l-6.44.22c-.29-.76-.44-1.46-.44-2.08h-.35c-2,1.71-4.71,2.57-8.11,2.57-2.28,0-4.16-.63-5.67-1.9-1.5-1.27-2.25-2.94-2.25-5.04,0-2.77,1.17-5.03,3.51-6.8,2.34-1.77,6.44-2.7,12.3-2.81.04-.33.05-.64.05-.93,0-1.97-.47-3.26-1.42-3.89s-2.69-.94-5.22-.94c-2.75,0-5.43.36-8.05,1.09l.6-5.02c2.48-.86,5.97-1.28,10.49-1.28,3.3,0,5.84.69,7.63,2.08,1.79,1.38,2.69,3.81,2.69,7.26,0,.76-.03,2.16-.1,4.18-.06,2.02-.1,3.37-.1,4.04,0,3.77.29,6.85.87,9.26Zm-7.29-5.68c-.11-2.46-.16-4.58-.16-6.36-6.21,0-9.32,1.57-9.32,4.72,0,2.17,1.37,3.25,4.1,3.25,2.15,0,3.94-.54,5.38-1.61Z"/>
    <path class="cls-6" d="m593.8,416.09h-7.26c.4-4.61.6-9.27.6-13.98,0-2.86-.42-4.8-1.27-5.82-.85-1.02-2.14-1.53-3.87-1.53-2.08,0-4.04.71-5.9,2.13.09,7.1.14,13.5.14,19.2h-7.35c.33-5.7.49-10.18.49-13.44,0-4.35-.44-8.46-1.34-12.32l6.99-.76.46,2.89h.44c2.49-2.15,5.36-3.22,8.61-3.22,2.8,0,5.05.66,6.73,1.98s2.52,3.75,2.52,7.31c0,.53-.02,1.23-.07,2.12-.05.88-.07,1.79-.07,2.72,0,2.46.04,6.7.13,12.73Z"/>
    <path class="cls-6" d="m607.62,416.09h-7.34c.25-3.77.38-8.09.38-12.97s-.31-9.08-.93-12.73l7.86-.79c-.24,3.53-.36,8.04-.36,13.52,0,4.68.13,9,.38,12.97Zm1.26-34.19c0,1.24-.42,2.32-1.27,3.25s-2.03,1.39-3.54,1.39c-1.27,0-2.27-.4-2.99-1.2-.72-.8-1.08-1.77-1.08-2.89,0-1.24.42-2.31,1.27-3.22.85-.91,2.03-1.37,3.56-1.37,1.29,0,2.29.4,2.99,1.19.7.79,1.05,1.74,1.05,2.85Z"/>
    <path class="cls-6" d="m633.54,410.63l-.14,5.46h-20.65l.38-5.22c.91-.82,3.05-3.35,6.42-7.59,3.6-4.53,5.41-7.13,5.41-7.78v-.44c-4.33,0-8.32.15-11.96.46l.13-5.38h19.83l-.41,5.24c-1.15,1.26-3.2,3.81-6.15,7.65-3.44,4.48-5.16,7.05-5.16,7.7v.41c4.13,0,8.23-.17,12.29-.52Z"/>
    <path class="cls-6" d="m660.32,416.06l-6.44.22c-.29-.76-.44-1.46-.44-2.08h-.35c-2,1.71-4.71,2.57-8.11,2.57-2.28,0-4.16-.63-5.67-1.9-1.5-1.27-2.25-2.94-2.25-5.04,0-2.77,1.17-5.03,3.51-6.8,2.34-1.77,6.44-2.7,12.3-2.81.04-.33.05-.64.05-.93,0-1.97-.47-3.26-1.42-3.89s-2.69-.94-5.22-.94c-2.75,0-5.43.36-8.05,1.09l.6-5.02c2.48-.86,5.97-1.28,10.49-1.28,3.3,0,5.84.69,7.63,2.08,1.79,1.38,2.69,3.81,2.69,7.26,0,.76-.03,2.16-.1,4.18-.06,2.02-.1,3.37-.1,4.04,0,3.77.29,6.85.87,9.26Zm-7.29-5.68c-.11-2.46-.16-4.58-.16-6.36-6.21,0-9.32,1.57-9.32,4.72,0,2.17,1.37,3.25,4.1,3.25,2.15,0,3.94-.54,5.38-1.61Z"/>
    <path class="cls-6" d="m683.59,390.15l-1.58,6.39c-1.35-.55-2.71-.82-4.1-.82-2.68,0-4.44,1.2-5.3,3.6,0,7.26.05,12.85.16,16.77h-7.26c.31-5.48.47-9.96.47-13.44,0-4.33-.46-8.44-1.37-12.32l6.96-.76c.31,2,.47,3.18.47,3.52h.44c1.67-2.57,3.9-3.85,6.69-3.85,1.31,0,2.79.3,4.42.9Z"/>
    <g>
      <path class="cls-6" d="m476,445.2c0,4.35-1.61,7.56-4.85,9.64-3.23,2.08-7.19,3.11-11.89,3.11-.86,0-1.47-.02-1.83-.05,0,3.42.1,7.94.3,13.55h-7.68c.24-5.26.36-11.46.36-18.6,0-6.55-.12-12.21-.36-16.96h4.75c.67,0,1.97-.03,3.88-.08,1.91-.05,3.57-.08,4.97-.08,3.46,0,6.38.78,8.77,2.35,2.38,1.57,3.57,3.94,3.57,7.13Zm-7.05,1.5c0-3.9-2.59-5.84-7.76-5.84-1.29,0-2.66.14-4.1.41.2,3.44.3,7.34.3,11.69.46.04.98.05,1.58.05,6.65,0,9.96-2.1,9.96-6.31Z"/>
      <path class="cls-6" d="m506.56,457.87c0,4.59-1.41,8.17-4.23,10.76-2.82,2.59-6.15,3.88-9.97,3.88s-6.76-1.18-9.36-3.54c-2.61-2.36-3.91-5.68-3.91-9.95,0-4.61,1.42-8.21,4.26-10.81,2.84-2.6,6.17-3.91,9.99-3.91,3.62,0,6.74,1.19,9.33,3.56,2.6,2.38,3.89,5.71,3.89,10.01Zm-7.12.82c0-2.64-.62-4.86-1.86-6.65-1.24-1.79-2.85-2.69-4.84-2.69s-3.5.84-4.71,2.51c-1.21,1.67-1.81,3.77-1.81,6.28,0,2.64.62,4.86,1.86,6.65,1.24,1.79,2.85,2.69,4.83,2.69s3.5-.84,4.72-2.51c1.21-1.67,1.81-3.77,1.81-6.28Z"/>
      <path class="cls-6" d="m529.5,445.5l-1.58,6.39c-1.35-.55-2.71-.82-4.1-.82-2.68,0-4.44,1.2-5.3,3.6,0,7.26.05,12.85.16,16.77h-7.26c.31-5.48.46-9.96.46-13.44,0-4.33-.46-8.44-1.37-12.32l6.96-.76c.31,2,.46,3.18.46,3.52h.44c1.67-2.57,3.91-3.85,6.69-3.85,1.31,0,2.79.3,4.42.9Z"/>
      <path class="cls-6" d="m569.26,461.75c0,7.12-5.12,10.68-15.35,10.68-3.48,0-6.71-.42-9.69-1.26l1.34-6.09c2.95,1.02,5.73,1.53,8.36,1.53,2.91,0,5.01-.28,6.28-.85,1.27-.56,1.91-1.51,1.91-2.84s-.6-2.55-1.8-3.5c-1.04-.84-3.14-1.93-6.31-3.28-2.88-1.24-5.02-2.59-6.42-4.04-1.77-1.84-2.65-4.11-2.65-6.8,0-3.13,1.16-5.58,3.48-7.35,2.32-1.77,5.66-2.65,10.01-2.65,3.57,0,6.56.3,8.98.9l-1.01,6.06c-2.46-.89-5.12-1.34-7.97-1.34-4.3,0-6.44,1.15-6.44,3.44,0,1.22.5,2.21,1.5,2.98.87.66,2.78,1.57,5.71,2.76,3.11,1.26,5.44,2.64,6.99,4.15,2.06,2.02,3.09,4.52,3.09,7.48Z"/>
      <path class="cls-6" d="m582.15,471.44h-7.35c.25-3.77.38-8.09.38-12.97s-.31-9.08-.93-12.73l7.86-.79c-.24,3.53-.36,8.04-.36,13.52,0,4.68.13,9,.38,12.97Zm1.26-34.19c0,1.24-.42,2.32-1.27,3.25-.84.93-2.02,1.39-3.53,1.39-1.27,0-2.27-.4-2.99-1.2-.72-.8-1.08-1.77-1.08-2.89,0-1.24.42-2.31,1.27-3.22.85-.91,2.04-1.37,3.57-1.37,1.29,0,2.29.4,2.99,1.19.7.79,1.05,1.74,1.05,2.85Z"/>
    </g>
    <path class="cls-4" d="m406.8,352.66v-34.59c0-1.82,1.48-3.3,3.3-3.3h13.38c1.82,0,3.3,1.48,3.3,3.3v14.25l-19.98,20.34Z"/>
    <path class="cls-4" d="m416.59,308.97l18.48-18.48c18.54-18.54-5.39-37.21-18.48-18.48-13.09-18.73-37.02-.06-18.48,18.48l18.48,18.48Z"/>
    <circle class="cls-6" cx="463.61" cy="384.66" r="2.46"/>
    <circle class="cls-6" cx="453.28" cy="384.66" r="2.46"/>
    <path class="cls-6" d="m454.06,377.78h-.11v-1.46h.11c2.71,0,4.42-.66,5.1-1.97,1.36-2.62-1.48-7.58-2.69-9.27l1.19-.85c.2.28,4.85,6.84,2.81,10.79-.95,1.83-3.1,2.76-6.4,2.76Z"/>
    <path class="cls-3" d="m463.3,400.49c0,.09,0,.19-.01.28,1.54-.47,2.66-1.9,2.66-3.59,0-2.07-1.68-3.75-3.75-3.75-.7,0-1.35.19-1.91.52-.53.35-1.16.56-1.85.56s-1.32-.21-1.85-.56c-.56-.33-1.21-.52-1.91-.52-2.07,0-3.75,1.68-3.75,3.75,0,1.78,1.23,3.26,2.89,3.65-.01-.11-.02-.23-.02-.34,0-1.48.98-2.74,2.32-3.16.31-.98,1.23-1.7,2.32-1.7s1.97.68,2.3,1.63c1.47.34,2.56,1.66,2.56,3.23h0Zm-7.28-2.66c-1.04.43-1.78,1.46-1.78,2.66,0,1.59,1.29,2.87,2.87,2.87h2.87c1.59,0,2.87-1.29,2.87-2.87,0-1.28-.84-2.37-2.01-2.74.01.1.02.2.02.31,0,.12,0,.24-.03.36.54.24.91.78.91,1.41,0,.85-.69,1.55-1.55,1.55h-3.31c-.85,0-1.55-.69-1.55-1.55,0-.54.28-1.02.71-1.3-.03-.15-.05-.31-.05-.47,0-.08,0-.15.01-.23h0Zm.17,1.14c-.24.2-.4.51-.4.85,0,.61.49,1.1,1.1,1.1h3.31c.61,0,1.1-.49,1.1-1.1,0-.42-.23-.78-.58-.97-.33.95-1.23,1.63-2.3,1.63s-1.89-.63-2.25-1.51h0Zm2.25,1.07c1.1,0,1.99-.89,1.99-1.99s-.89-1.99-1.99-1.99-1.99.89-1.99,1.99.89,1.99,1.99,1.99Z"/>
    <path class="cls-4" d="m694.56,363.72c-.32.05-.64.08-.97.08h-170.99c-6.6,0-12.82-2.55-17.51-7.19l-46.11-45.55-106.86,106.86c-1.18,1.19-2.73,1.78-4.28,1.78s-3.1-.59-4.28-1.78c-2.37-2.37-2.37-6.2,0-8.57l108.9-108.9c3.58-3.57,9.42-3.59,13-.04l48.15,47.58c2.41,2.38,5.61,3.69,9,3.69h169.81c.38,1.77.72,3.54,1.05,5.33.41,2.22.78,4.46,1.1,6.72Z"/>
  </g>
  <g id="_Radial_Repeat_" data-name="&amp;lt;Radial Repeat&amp;gt;">
    <circle class="cls-5" cx="512" cy="640.64" r="45.55"/>
  </g>
  <g id="_Radial_Repeat_-2" data-name="&amp;lt;Radial Repeat&amp;gt;">
    <circle class="cls-5" cx="386.8" cy="607.09" r="45.55"/>
  </g>
  <g id="_Radial_Repeat_-3" data-name="&amp;lt;Radial Repeat&amp;gt;">
    <circle class="cls-5" cx="295.15" cy="515.44" r="45.55"/>
  </g>
  <g id="_Radial_Repeat_-4" data-name="&amp;lt;Radial Repeat&amp;gt;">
    <circle class="cls-5" cx="261.6" cy="390.24" r="45.55"/>
  </g>
  <g id="_Radial_Repeat_-5" data-name="&amp;lt;Radial Repeat&amp;gt;">
    <circle class="cls-5" cx="295.15" cy="265.04" r="45.55"/>
  </g>
  <g id="_Radial_Repeat_-6" data-name="&amp;lt;Radial Repeat&amp;gt;">
    <circle class="cls-5" cx="386.8" cy="173.39" r="45.55"/>
  </g>
  <g id="_Radial_Repeat_-7" data-name="&amp;lt;Radial Repeat&amp;gt;">
    <circle class="cls-5" cx="512" cy="139.85" r="45.55"/>
  </g>
  <g id="_Radial_Repeat_-8" data-name="&amp;lt;Radial Repeat&amp;gt;">
    <circle class="cls-5" cx="637.2" cy="173.39" r="45.55"/>
  </g>
  <g id="_Radial_Repeat_-9" data-name="&amp;lt;Radial Repeat&amp;gt;">
    <circle class="cls-5" cx="728.85" cy="265.04" r="45.55"/>
  </g>
  <g id="_Radial_Repeat_-10" data-name="&amp;lt;Radial Repeat&amp;gt;">
    <circle class="cls-5" cx="762.4" cy="390.24" r="45.55"/>
  </g>
  <g id="_Radial_Repeat_-11" data-name="&amp;lt;Radial Repeat&amp;gt;">
    <circle class="cls-5" cx="728.85" cy="515.44" r="45.55"/>
  </g>
  <g id="_Radial_Repeat_-12" data-name="&amp;lt;Radial Repeat&amp;gt;">
    <circle class="cls-5" cx="637.2" cy="607.09" r="45.55"/>
  </g>
  <g>
    <circle class="cls-4" cx="637.2" cy="607.09" r="45.55"/>
    <g>
      <path class="cls-6" d="m637.49,645.49c-1.23,0-2.46-.06-3.69-.17-2.92-.27-5.81-.86-8.57-1.76-.33-.11-.51-.46-.4-.79s.46-.51.79-.4c2.68.87,5.47,1.44,8.3,1.7,10.15.94,20.05-2.13,27.89-8.64,7.84-6.51,12.67-15.68,13.61-25.83.94-10.15-2.13-20.05-8.64-27.89-6.51-7.84-15.68-12.67-25.83-13.61-6.05-.56-11.95.28-17.56,2.51-5.35,2.12-10.23,5.49-14.12,9.74-.23.25-.63.27-.88.04-.25-.23-.27-.63-.04-.88,4.02-4.39,9.06-7.87,14.58-10.06,5.79-2.3,11.89-3.17,18.13-2.59,5.3.49,10.34,2,14.99,4.5,4.49,2.41,8.42,5.62,11.69,9.56,3.27,3.94,5.71,8.39,7.25,13.25,1.6,5.03,2.16,10.26,1.67,15.56-.49,5.3-2,10.34-4.5,14.99-2.41,4.49-5.62,8.42-9.56,11.69-3.94,3.27-8.39,5.71-13.25,7.25-3.85,1.23-7.83,1.84-11.86,1.84Z"/>
      <path class="cls-6" d="m618.5,639.94c3.78.18,8.71-.16,12.16-1.28l-4.31,4.63-.35,6.31c-1.58-3.26-4.75-7.05-7.5-9.65Z"/>
    </g>
  </g>
  <g>
    <circle class="cls-4" cx="512" cy="139.85" r="45.55"/>
    <g>
      <path class="cls-6" d="m522.85,127.32c-2.8-.93-4.41-4.07-3.48-6.95.93-2.97,4.07-4.58,7.04-3.65s4.49,3.98,3.56,7.04c-1.02,2.97-4.15,4.49-7.12,3.56Z"/>
      <path class="cls-6" d="m515.98,140.72c.08,0,.17-.08.25-.17,0-.17.08-.34.08-.42.25-.93,1.02-1.44,2.03-1.44.25,0,.42,0,.68-.08.76-.08,1.53-.17,2.2-.34,1.27-.42,2.37-1.1,3.22-2.03l.34-.34c.25-.25.42-.51.68-.85.51-.68.76-1.53.93-2.37.17-.93-.25-1.87.08-2.8.25-.68.93-1.27,1.7-1.53,1.44-.51,3.05.17,3.98,1.36,1.95,2.37,3.31,5.17,4.41,7.97.85,2.29,1.44,4.66,1.7,7.12.17,2.37.17,5.09-.93,7.21-.85,1.61-2.2,1.87-3.9,2.03-.25.25-.25.51-.25.76v2.63c0,1.1,0,2.2-.08,3.31,0,1.02-.25,2.29-.76,3.31-.34.68-.93,1.1-1.7,1.27-4.15.93-3.73-6.78-3.73-8.9v-1.7c0-.17,0-.42-.08-.68-1.02-.08-1.78-.17-2.37-.34-.34-.08-.68-.08-1.02-.17-.59-.08-.93-.76-.68-1.27,1.19-2.37,1.95-5.09,2.46-7.29.34-1.36.51-2.54.59-3.39-.08-.17-.17-.34-.25-.25-1.19.93-2.71,1.36-4.15,1.53-1.27.17-3.14.42-4.32-.25-.25-.17-.42-.34-.59-.51-.17,0-.34.08-.51.34-.25.51-.08,1.1.17,1.61.25.42.85.76.85,1.27v16.36c0,.42-.34.85-.76.93-.51.08-.93-.34-.93-.85v-11.78c0-2.03,0-4.07-.68-6.1-.51-1.53.08-2.54,1.36-3.14h0Z"/>
      <path class="cls-6" d="m504.71,120.2c-.93-2.97-4.07-4.58-7.04-3.65-.25.08-.42.17-.68.25v-.08c-.59-1.87-2.54-2.88-4.41-2.2-1.78.59-2.8,2.46-2.2,4.32.51,1.53,1.95,2.46,3.48,2.37-.08.76,0,1.53.25,2.37.93,2.97,4.07,4.49,7.12,3.56,2.71-.93,4.41-4.07,3.48-6.95Z"/>
      <path class="cls-6" d="m508.02,140.55c-.08,0-.17-.08-.25-.17,0-.17-.08-.34-.08-.42-.25-.93-1.02-1.44-2.03-1.44-.25,0-.42,0-.68-.08-.76-.08-1.53-.17-2.2-.34-1.27-.42-2.37-1.1-3.22-2.03l-.34-.34c-.25-.25-.42-.51-.68-.85-.51-.68-.76-1.53-.93-2.37-.17-.93.25-1.87-.08-2.8-.25-.68-.93-1.27-1.7-1.53-1.44-.51-3.05.17-3.98,1.36-1.95,2.37-3.31,5.17-4.41,7.97-.85,2.29-1.44,4.66-1.7,7.12-.17,2.37-.17,5.09.93,7.21.85,1.61,2.2,1.87,3.9,2.03.25.25.25.51.25.76v2.63c0,1.1,0,2.2.08,3.31,0,1.02.25,2.29.76,3.31.34.68.93,1.1,1.7,1.27,4.15.93,3.73-6.78,3.73-8.9v-1.7c0-.17,0-.42.08-.68,1.02-.08,1.78-.17,2.37-.34.34-.08.68-.08,1.02-.17.59-.08.93-.76.68-1.27-1.19-2.37-1.95-5.09-2.46-7.29-.34-1.36-.51-2.54-.59-3.39.08-.17.17-.34.25-.25,1.19.93,2.71,1.36,4.15,1.53,1.27.17,3.14.42,4.32-.25.25-.17.42-.34.59-.51.17,0,.34.08.51.34.25.51.08,1.1-.17,1.61-.25.42-.85.76-.85,1.27v16.36c0,.42.34.85.76.93.51.08.93-.34.93-.85v-11.78c0-2.03,0-4.07.68-6.1.51-1.53-.08-2.54-1.36-3.14h0Z"/>
    </g>
  </g>
  <g>
    <circle class="cls-4" cx="386.8" cy="173.39" r="45.55"/>
    <g>
      <path class="cls-6" d="m389.08,150.46c3.14-.73,6.28,1.22,7.01,4.36.73,3.14-1.22,6.28-4.36,7.01-3.14.73-6.28-1.22-7.01-4.36-.73-3.14,1.22-6.28,4.36-7.01"/>
      <path class="cls-6" d="m401.23,170.26c2.32,2.08.89,5.18-4.65,11.14-1.19,1.25.89,1.91,4.23,2.09l-.71,9.53c-.18,1.97,1.49,3.63,3.51,3.45,1.61-.12,2.8-1.55,2.92-3.16l.77-10.01c.3,0,.66,0,.95-.06,0,.12.06.3.12.42l4.41,10.78c.71,1.85,2.98,2.62,4.71,1.55,1.37-.83,1.85-2.62,1.25-4.11l-3.93-9.59c2.86-.66,4.59-1.55,3.69-2.5-4.23-4.53-.18-10.07-9.41-16.38-4.23-2.92-8.64-7.33-11.68-4.17-2.14,2.2-2.92,4.65-3.22,5.84-.12.3-.36,1.19-.24,6.08l-3.93,2.8c-1.13.83-1.61,2.38-.95,3.57.66,1.31,2.14,1.73,3.4,1.25.18-.06.36-.18.54-.3l5.18-3.75c.71-.54,1.19-1.37,1.13-2.26-.06-1.19-.06-2.56-.06-3.69l1.97,1.49h0Z"/>
      <path class="cls-6" d="m355.25,170.38c-.77.66-.89,1.79-.12,2.56l5.84,6.79v14.95c0,.95.77,1.79,1.79,1.79.95,0,1.79-.77,1.79-1.79v-7.27c0-.24.18-.48.48-.48h1.67c.24,0,.48.18.48.48v7.27c0,.95.83,1.79,1.79,1.79.95,0,1.79-.77,1.79-1.79v-14.95s5.84-6.79,5.84-6.79c.66-.77.6-1.91-.18-2.56-.77-.66-1.91-.6-2.56.18l-4.29,5c-.48.54-1.13.83-1.85.83h-3.75c-.72,0-1.37-.3-1.85-.83l-4.29-5c-.65-.77-1.79-.83-2.56-.18h0Z"/>
      <path class="cls-6" d="m361.39,170.32c0-2.43,1.97-4.41,4.41-4.41s4.41,1.97,4.41,4.41c0,2.43-1.97,4.41-4.41,4.41-2.43,0-4.41-1.97-4.41-4.41"/>
      <path class="cls-6" d="m378.15,191.16v4.23c0,.6.48,1.07,1.07,1.07h4.23c.6,0,1.07-.48,1.07-1.07v-4.23c0-.6-.48-1.07-1.07-1.07h-4.23c-.6,0-1.13.48-1.07,1.07Z"/>
      <path class="cls-6" d="m385.96,191.16v4.23c0,.6.48,1.07,1.07,1.07h4.23c.6,0,1.07-.48,1.07-1.07v-4.23c0-.6-.48-1.07-1.07-1.07h-4.23c-.6,0-1.07.48-1.07,1.07Z"/>
      <path class="cls-6" d="m386.99,182.38c-.6,0-1.07.48-1.07,1.07v4.23c0,.6.48,1.07,1.07,1.07h4.23c.6,0,1.07-.48,1.07-1.07v-4.23c0-.6-.48-1.07-1.07-1.07h-4.23Z"/>
      <path class="cls-6" d="m379.32,182.41c-.6,0-1.07.48-1.07,1.07v4.23c0,.6.48,1.07,1.07,1.07h4.23c.6,0,1.07-.48,1.07-1.07v-4.23c0-.6-.48-1.07-1.07-1.07h-4.23Z"/>
      <path class="cls-6" d="m379.41,174.72c-.6,0-1.07.48-1.07,1.07v4.23c0,.6.48,1.07,1.07,1.07h4.23c.6,0,1.07-.48,1.07-1.07v-4.23c0-.6-.48-1.07-1.07-1.07h-4.23Z"/>
    </g>
  </g>
  <g>
    <circle class="cls-4" cx="637.2" cy="173.39" r="45.55"/>
    <g>
      <g>
        <path class="cls-6" d="m645.39,170.17l14.33-27.54c.52-1.04.11-2.3-.93-2.82-1.04-.53-2.3-.11-2.82.93l-14.32,27.52c.69.15,1.37.37,2,.69.65.33,1.22.75,1.74,1.21h0Z"/>
        <path class="cls-6" d="m643.03,185.91l-11.51-5.8c-.66-.33-1.46-.16-1.95.4-2.63,2.98-5.78,5.49-9.35,7.35l-4.88,2.55s-.06.07-.11.1c-.07.05-.13.11-.19.18-.04.05-.1.1-.13.16,0,.01-.19.02-.19.03-.07.13-.27.28-.27.44h0c0,.93,1.06,2.25,2.76,3.75.66.58,1.66.54,2.26-.1l3.98-4.2-2.74,5.12c-.39.73-.18,1.64.51,2.1,1.01.67,2.12,1.36,3.31,2.03.75.42,1.7.17,2.16-.55l5.4-8.56-3.07,9.85c-.24.78.14,1.64.89,1.97.96.43,1.9.82,2.81,1.17.84.32,1.77-.13,2.08-.98l2.95-8.14-1.41,8.81c-.13.84.42,1.65,1.25,1.84,1.3.31,2.44.48,3.34.48,1.14,0,1.92-.26,2.2-.81,0-.02,0-.03.01-.05.03-.06.03-.12.05-.18.02-.1.04-.19.03-.29,0-.04.03-.08.02-.13l-.85-5.44c-.68-4.4-.45-8.86.64-13.12h0Z"/>
        <path class="cls-6" d="m642.7,170.83c-.89-.45-1.86-.68-2.83-.68-.67,0-1.33.11-1.97.31-1.58.52-2.9,1.66-3.65,3.14-.75,1.48-1.6,2.89-2.55,4.22l11.92,6.01c.51-1.56,1.13-3.08,1.88-4.56,1.56-3.11.31-6.89-2.79-8.46h0Z"/>
        <path class="cls-6" d="m651.32,205.26c0,1.07-.87,1.94-1.94,1.94s-1.94-.87-1.94-1.94.87-1.94,1.94-1.94,1.94.87,1.94,1.94"/>
        <path class="cls-6" d="m655.19,199.44c0,1.07-.87,1.94-1.94,1.94s-1.94-.87-1.94-1.94.87-1.94,1.94-1.94,1.94.87,1.94,1.94"/>
      </g>
      <path class="cls-6" d="m649.01,200.17c0,1.07-.87,1.94-1.94,1.94s-1.94-.87-1.94-1.94.87-1.94,1.94-1.94,1.94.87,1.94,1.94"/>
    </g>
  </g>
  <g>
    <circle class="cls-4" cx="261.6" cy="390.24" r="45.55"/>
    <g>
      <path class="cls-6" d="m244.29,393.09v23.4c0,1.5,1.21,2.71,2.71,2.71h29.2c1.5,0,2.71-1.21,2.71-2.71v-23.4"/>
      <path class="cls-6" d="m283.42,393.17c-.18,0-.36-.06-.52-.17l-21.3-15.67-21.3,15.67c-.39.29-.94.2-1.23-.19-.29-.39-.2-.94.19-1.23l22.34-16.43,22.34,16.43c.39.29.47.84.19,1.23-.17.23-.44.36-.71.36Z"/>
      <path class="cls-6" d="m261.6,377.12c-.49,0-.88-.39-.88-.88v-3.61h.88c2.89,0,5.24-2.35,5.24-5.24s-2.35-5.24-5.24-5.24-5.24,2.35-5.24,5.24c0,.49-.39.88-.88.88s-.88-.39-.88-.88c0-3.86,3.14-6.99,6.99-6.99s6.99,3.14,6.99,6.99c0,3.56-2.67,6.5-6.11,6.94v1.91c0,.49-.39.88-.88.88Z"/>
    </g>
  </g>
  <g>
    <circle class="cls-4" cx="295.15" cy="265.04" r="45.55"/>
    <g>
      <g>
        <g>
          <path class="cls-6" d="m276.42,228.04h-.05c-.86,0-1.69.35-2.33.96-.7.67-1.09,1.63-1.09,2.6v12.06c0,2.73,1.76,3.98,3.43,3.98s3.42-1.25,3.42-3.98v-12.14c0-1.87-1.5-3.45-3.37-3.48Zm.12,5.98c-.07.14-.27.14-.34,0l-.77-1.49c.3-.19.62-.28.94-.28s.64.1.93.28l-.77,1.49Z"/>
          <path class="cls-6" d="m273.39,248.56s-.02.07-.01.1c.29,1.67.72,3.34,1.28,4.92l1.38,3.91c.11.31.55.31.66,0l1.38-3.91c.58-1.65,1-3.33,1.29-5.04,0-.05-.03-.1-.09-.1l-2.92.03h-2.83c-.06,0-.11.03-.14.09h0Z"/>
        </g>
        <g>
          <path class="cls-6" d="m280.89,235.39c.99.09,1.98,2.8,1.38,6.82h0c-.3,2.05-.9,3.66-1.53,4.76-.1.18-.35.1-.35-.11h0v-10.96c0-.28.2-.51.46-.51h.04Z"/>
          <path class="cls-6" d="m271.88,235.39c.25,0,.46.24.46.51v10.75s0,.2,0,.2h0c0,.21-.25.28-.35.11-.63-1.1-1.23-2.71-1.53-4.76h0c-.6-4.02.39-6.73,1.38-6.82h.04Z"/>
        </g>
      </g>
      <path class="cls-6" d="m283.91,248.01v1.3h-25.9v42.1c-.22-.31-.44-.62-.65-.94-.22-.33-.44-.66-.65-.99v-41.47h27.2Z"/>
      <path class="cls-6" d="m296.28,270.91c-.77,1.1-1.41,2.17-1.41,2.36,0,.89-1.78,2.11-3.1,2.11-.74,0-1.54.12-1.77.27-.23.15-.67,1.34-.97,2.65-.3,1.31,1.23,2.98,1.61,4.24.45,1.51,0,2.73-.81,3.7-1.4,1.67-2.46,2.25-6.06,2.49-.67.28-1.73,3.3-1.74,3.66-.01.78-1.1,4-2.13,6.26-.48,1.06-.85,2.78-.97,4.46-.11,1.6-.36,2.77-1.05,4.08-8.39-3.44-15.52-9.31-20.53-16.73-.84-1.24-1.61-2.52-2.32-3.84.26-.05.54-.11.84-.17.48-.1.98-.2,1.48-.3,1.72-.34,3.44-.67,4.22-.8,4.28-.7,4.63-.89,6.35-3.55,2.83-4.37,2.85-4.46,2.12-7.2-.09-.34-.93-.85-1.92-1.19-1.78-.59-3.2-1.92-3.2-3,0-.32-.32-1.22-.71-1.99-.39-.77-.71-1.86-.71-2.43s-.25-1.99-.55-3.16c-.57-2.19-.35-3.14.73-3.14,1.15,0,4.05,1.7,6.02,3.52,1.2,1.11,2.93,2.63,3.85,3.38l1.68,1.36,2.01-.42c1.67-.35,2.52-.31,5.04.18l3.03.6,4.16-2.13c4.34-2.22,5.65-2.72,8.17-3.11,1.19-.18,1.56-.12,1.73.32.32.83-1.48,5.23-3.08,7.51Z"/>
      <g>
        <path class="cls-6" d="m306.13,301.27c0,3.05-1.23,5.81-3.22,7.82-.37.37-.76.71-1.17,1.02-2.15.31-4.35.47-6.59.47-2.35,0-4.65-.18-6.91-.52h0c-.39-.3-.76-.63-1.11-.98-1.99-2.01-3.22-4.77-3.22-7.82,0-1.78.42-3.46,1.16-4.95.04-.08.08-.16.12-.24.51-.96,1.15-1.84,1.91-2.61h15.82c.82.83,1.5,1.79,2.03,2.84.09.18.18.37.26.56.58,1.35.9,2.83.9,4.39Z"/>
        <path class="cls-4" d="m302.62,298.06c-.48,0-.99-.09-1.51-.28-5.87-2.09-7.97-1.53-10.2-.93-.38.1-.77.21-1.18.3-1.61.37-2.76-.05-3.76-.41-.32-.12-.62-.23-.93-.31l.06-.22c.32.09.62.2.95.31,1.03.37,2.09.76,3.64.41.41-.09.79-.2,1.17-.3,2.26-.61,4.4-1.18,10.33.93,1.5.53,2.76.29,3.97-.78l.15.17c-.83.74-1.72,1.1-2.68,1.1Z"/>
        <g>
          <path class="cls-6" d="m289.96,302.09c-.08,0-.15.05-.18.12-.03.07-.01.16.04.22.06.06.14.07.22.04.07-.03.12-.1.12-.18,0-.11-.09-.2-.2-.2h0Z"/>
          <path class="cls-4" d="m300.93,302.97c.51-.3,1.05-1.11,1.1-1.53,0-.1-.02-.19-.09-.26-.07-.07-.16-.1-.26-.1-1.19.1-1.97.86-2.39,1.27-.06.06-.11.11-.15.15-1.3-1.13-2.63-1.69-3.81-1.93.07-.17.17-.37.24-.48.04-.06.06-.12.07-.2,0-.07,0-.14-.04-.2-.04-.06-.08-.11-.15-.15-.06-.04-.13-.06-.2-.06-.37,0-.82.05-1.32.2-.5.15-1.04.42-1.58.85-.28.05-.57.12-.84.2s-.55.17-.82.28c0,0,0,0-.01,0-1.13.45-2.04,1.09-2.56,1.71-.06.07-.09.15-.09.25s.03.18.09.25c.53.62,1.44,1.26,2.58,1.71,0,0,.02,0,.03.01.76.3,1.56.49,2.38.55.63.72,1.39.79,1.82.79h.14c.06,0,.12-.02.17-.05.05-.03.1-.07.12-.13.06-.11.05-.25-.02-.35l-.22-.34c1.23-.21,2.65-.76,4.04-1.97.04.04.1.09.15.15.42.41,1.19,1.18,2.39,1.27.1,0,.19-.02.25-.1.07-.07.1-.16.09-.26-.05-.42-.59-1.23-1.1-1.53Zm-9.69.61c-.07.21-.19.38-.3.55-.12.17-.23.33-.29.52-1.04-.43-1.87-1.02-2.36-1.59-.02-.02-.03-.05-.03-.08s.01-.06.03-.08c.5-.57,1.34-1.17,2.39-1.61.36.43.84,1.45.56,2.3Z"/>
        </g>
      </g>
      <path class="cls-6" d="m330.95,293.2c-4.8,6.09-11.11,10.93-18.38,13.94-.06-.3-.13-.59-.22-.85-.42-1.3-1.06-2.52-1.6-3.78-2-4.68-2.51-8.62-1.39-13.58.44-1.95,1.13-3.85,1.35-5.84.1-1,.07-1.87-.45-2.73-.31-.52-.76-.94-1.2-1.35-.01-.01-.03-.02-.04-.04-.47-.45-.87-.92-1.2-1.41-.33-.5-.59-1.03-.77-1.58-.59-1.75-.45-3.73.32-5.83l.05-.16c-1.01-1.39-1.71-3.74-1.91-6.9,2.78.66,5.05,2.11,6.04,2.77.82.4,1.52-.25,4.02-.29,1.5-.02,2.11.16,3.1.33.47.08.75.3,1.22.2.5-.1,1.17-.65,1.57-.97,1.68-1.32,2.82-1.81,4.74-2.44.58,3.94-1.2,6.56-2.17,7.83.86,1.79,1.01,3.64.45,5.45-.17.55-.41,1.1-.71,1.65-.1.17-.2.34-.31.51-.28.43-.53.77-.75,1.06,0,0,0,0,0,0-.82,1.1-1.23,1.56-.97,3.32.15,1.02.45,2.21,1.62,3.27,1.16,1.05,2.1,1.72,3,2.56,2.27,2.11,3.59,3.51,4.59,4.86Z"/>
      <path class="cls-6" d="m298.79,276.51l-.03-.2c7.12-1.02,13.08,0,13.14,0l-.04.2c-.06-.01-5.99-1.01-13.08,0Z"/>
      <path class="cls-6" d="m299.37,279.49l-.07-.19c5.46-1.99,13.02-2.18,13.09-2.18v.21c-.07,0-7.6.19-13.02,2.17Z"/>
      <path class="cls-6" d="m303.06,282.12l-.12-.17c4.49-3.22,9.6-4.02,9.65-4.03l.03.2c-.05,0-5.11.8-9.56,3.99Z"/>
      <path class="cls-6" d="m332.35,276.51c-7.09-1.01-13.02-.01-13.08,0l-.04-.2c.06-.01,6.02-1.02,13.14,0l-.03.2Z"/>
      <path class="cls-6" d="m331.78,279.49c-5.43-1.98-12.95-2.17-13.03-2.17v-.21c.08,0,7.64.19,13.1,2.18l-.07.19Z"/>
      <path class="cls-6" d="m328.08,282.12c-4.45-3.19-9.51-3.99-9.56-3.99l.03-.2c.05,0,5.15.81,9.65,4.03l-.12.17Z"/>
      <path class="cls-1" d="m340.69,265.04c0,1.47-.07,2.92-.2,4.34-.1,1.1-.25,2.18-.42,3.25-.18,1.08-.4,2.14-.65,3.19-.22.89-.46,1.77-.73,2.65-.83,2.7-1.91,5.29-3.2,7.75-.56,1.07-1.17,2.11-1.81,3.13-.84,1.33-1.75,2.61-2.71,3.84-4.8,6.09-11.12,10.93-18.38,13.94-3.42,1.41-7.05,2.43-10.83,2.98-2.15.31-4.35.47-6.59.47s-4.65-.17-6.91-.52c-1.8-.27-3.57-.65-5.3-1.13-1.73-.48-3.42-1.06-5.06-1.73-1-.41-1.99-.86-2.95-1.34-.48-.24-.96-.49-1.44-.74-.21-.12-.43-.23-.64-.35-.26-.15-.51-.29-.77-.44-.23-.13-.46-.27-.69-.41-.19-.11-.37-.23-.56-.35-.27-.17-.54-.35-.8-.52-.22-.15-.45-.3-.67-.45-.21-.15-.43-.3-.64-.45-.02,0-.03-.02-.04-.02-.21-.15-.42-.31-.63-.46-.22-.16-.43-.32-.64-.48-.21-.16-.42-.33-.63-.5-.42-.33-.84-.68-1.24-1.03-.4-.35-.8-.7-1.19-1.05l-.59-.55c-1.54-1.47-2.99-3.05-4.32-4.72-.17-.21-.33-.42-.49-.63-.16-.21-.32-.43-.48-.65-.16-.21-.32-.43-.47-.65-.22-.31-.44-.62-.65-.94-.22-.33-.44-.66-.65-.99-.32-.5-.62-1-.92-1.51-.12-.19-.22-.38-.34-.58-.14-.25-.28-.5-.42-.76-3.47-6.43-5.43-13.78-5.43-21.59,0-25.15,20.39-45.54,45.55-45.54s45.54,20.39,45.54,45.54Z"/>
      <path class="cls-6" d="m339.08,275.81c.11.02.22.02.33.02-.22.89-.46,1.77-.73,2.65-.17-.04-.35-.09-.52-.16-.57-.22-1.11-.6-1.33-1.16-.22-.57,0-1.32.56-1.54.54-.21,1.12.11,1.7.19Z"/>
      <path class="cls-6" d="m340.49,269.39c-.1,1.1-.25,2.18-.42,3.25-1.94-.64-4.08.04-5.68,1.32-2.18,1.73-2.61,4.99-2.09,6.99.55,2.11,1.85,3.83,3.19,5.28-.56,1.07-1.17,2.11-1.81,3.13-1.37-1.6-2.61-3.3-3.56-5.17-.86-1.69-1.25-3.72-1.18-5.65h0c.03-.85.15-1.69.35-2.46.21-.78.5-1.49.88-2.11,2.38-3.82,6.49-4.77,8.94-4.72.41,0,.9.05,1.39.13Z"/>
    </g>
  </g>
  <g>
    <circle class="cls-4" cx="762.4" cy="390.24" r="45.55"/>
    <g>
      <path class="cls-6" d="m792.85,408.58h-22.17v5.19h8.89c3.87,0,5.55-.03,7.58-.03h5.93c1.84,0,2.05-1.57,2.05-1.57v-1.32s.13-2.27-2.27-2.27h0Z"/>
      <path class="cls-6" d="m789.78,407.25c3.03,0,5.5-2.45,5.5-5.48s-2.47-5.48-5.5-5.48-5.49,2.45-5.49,5.48,2.46,5.48,5.49,5.48h0Z"/>
      <path class="cls-6" d="m778.19,407.58c2.89,0,5.2-2.33,5.2-5.19s-2.3-4.51-5.16-4.53l-7.56.8v8.92h7.52Z"/>
      <path class="cls-6" d="m753.52,371.47c3.37,0,6.09-2.72,6.09-6.08s-2.73-6.08-6.09-6.08-6.1,2.72-6.1,6.08c0,3.36,2.73,6.08,6.1,6.08h0Z"/>
      <path class="cls-6" d="m747.3,391.15s-.04-.04-.05-.08l-2.76-6.51v12.63s8.25,0,8.25,0l1.8-1.79-4.89-1.81c-1.16-.43-1.98-1.35-2.35-2.44h0Z"/>
      <path class="cls-6" d="m749.05,390.58c.26.6.76,1.08,1.38,1.3l9.42,3.47c1.21.53,2.62-.02,3.14-1.22.53-1.21-.02-2.62-1.23-3.15l-8.69-3.26-2.69-6.4,1.75-.65,2.28,5.49,6.61,2.44v-6.7s3.5,2.08,3.5,2.08l1.74,8.75c.43,1.25,1.79,1.91,3.04,1.48,1.24-.43,1.9-1.79,1.47-3.04l-1.96-8.43c-.13-.47-.4-.88-.77-1.19-1.01-1.1-6.08-6.67-6.44-7.05-.53-.53-1.74-1.4-4.03-1.4h-8.22c-4.67,0-5.57,4.66-4.61,7.07l4.3,10.43Z"/>
      <path class="cls-6" d="m769.32,398.2h-37.1c-1.35,0-2.69,1.35-2.69,3.01,0,.39,0,1.09,0,1.09v11.44s3.19,0,3.19,0h36.6v-15.55Z"/>
    </g>
  </g>
  <g>
    <circle class="cls-4" cx="728.85" cy="515.44" r="45.55"/>
    <g>
      <path class="cls-6" d="m727.58,526.95c-1.06,0-2.06.24-2.95.66v-17.32l-3.57-26.63s-.08-.38-.61-.54h0s0,0-.02,0c0,0,0,0-.01,0h0c-.53.17-.61.56-.61.56l-3.57,26.63v17.32c-.9-.42-1.9-.66-2.96-.66-3.87,0-7,3.13-7,7s3.13,7,7,7,7-3.14,7-7c0-.74-.11-1.44-.32-2.11v-14.9h.92v14.9c-.21.66-.32,1.37-.32,2.11,0,3.83,3.08,6.94,6.9,7-.09,1.25.04,3.13.62,4.65.67,1.78,2.46,2.73,3.41,1.87,1.94-1.71-.95-4.01-.95-4.01-.8-1.15-.49-2.37-.18-3.09,2.48-1.08,4.21-3.55,4.21-6.42,0-3.88-3.14-7.01-7-7.01h0Zm-14.29,10.86c-2.13,0-3.86-1.73-3.86-3.86s1.73-3.86,3.86-3.86,3.86,1.73,3.86,3.86c0,2.13-1.73,3.86-3.86,3.86Zm14.29,0c-2.13,0-3.86-1.73-3.86-3.86s1.73-3.86,3.86-3.86,3.86,1.73,3.86,3.86c0,2.13-1.73,3.86-3.86,3.86Z"/>
      <g>
        <path class="cls-6" d="m737.82,510.84h-8.04c.08.38.17.75.25,1.13h8.04c-.09-.37-.17-.75-.25-1.13Z"/>
        <path class="cls-6" d="m738.46,513.51h-8.04c.1.38.2.76.3,1.13h8.04c-.1-.37-.2-.75-.3-1.13Z"/>
        <path class="cls-6" d="m739.19,516.18h-8.04c.11.38.22.76.34,1.13h8.04c-.11-.37-.23-.74-.34-1.13Z"/>
        <path class="cls-6" d="m737.3,508.17h-8.04c.06.38.13.75.2,1.13h8.04c-.07-.37-.14-.75-.2-1.13Z"/>
        <path class="cls-6" d="m736.92,505.5h-8.04c.04.37.09.75.15,1.13h8.04c-.05-.38-.1-.75-.15-1.13Z"/>
        <path class="cls-6" d="m736.69,502.83h-8.04c.02.37.04.75.07,1.13h8.04c-.03-.38-.05-.75-.07-1.13Z"/>
        <path class="cls-6" d="m736.66,500.16h-8.04c0,.37-.01.74-.01,1.13h8.04c0-.38,0-.76.01-1.13Z"/>
        <path class="cls-6" d="m736.77,497.49h-8.04c-.02.37-.04.74-.06,1.13h8.04c.02-.38.04-.76.06-1.13Z"/>
        <path class="cls-6" d="m737.01,494.82h-8.04c-.04.37-.08.74-.12,1.13h8.04c.04-.38.08-.76.12-1.13Z"/>
        <path class="cls-6" d="m737.41,492.15h-8.04c-.07.37-.13.74-.19,1.13h8.04c.06-.38.13-.76.19-1.13Z"/>
        <path class="cls-6" d="m738.05,489.48h-8.04c-.11.36-.2.74-.3,1.13h8.04c.09-.39.19-.76.3-1.13Z"/>
        <path class="cls-6" d="m739.03,486.81h-8.04c-.17.35-.32.73-.47,1.13h8.04c.15-.4.31-.77.47-1.13Z"/>
        <path class="cls-6" d="m740.85,484.14h-8.04c-.36.34-.67.72-.95,1.13h8.04c.27-.41.59-.79.95-1.13Z"/>
        <path class="cls-6" d="m751.41,501.3c0-11.49-2.94-18.2-6.57-18.2s-6.57,6.71-6.57,18.2c0,5.75,1.91,12.43,3.29,17.32,1.79,6.35.6,14.11-.25,23.42-.08.98.25,1.95.92,2.68.67.73,1.61,1.14,2.61,1.14s1.93-.41,2.61-1.14c.66-.73,1-1.7.93-2.68-.87-9.31-2.05-17.07-.25-23.42,1.39-4.89,3.29-11.58,3.29-17.32Z"/>
      </g>
    </g>
  </g>
  <g>
    <circle class="cls-4" cx="386.79" cy="607.09" r="45.55"/>
    <g>
      <g>
        <path class="cls-6" d="m405.07,593.28v-5.26c0-1.84-1.49-3.33-3.33-3.33h-29.91c-1.83,0-3.33,1.49-3.33,3.33v5.26h36.57Zm-4.96-5.93c.88,0,1.63.71,1.63,1.63s-.73,1.63-1.63,1.63-1.63-.73-1.63-1.63c0-.92.76-1.63,1.63-1.63h0Zm-5.26,0c.88,0,1.63.71,1.63,1.63s-.73,1.63-1.63,1.63-1.63-.73-1.63-1.63.76-1.63,1.63-1.63Zm-21.38,0h10.45c.9,0,1.63.73,1.63,1.63s-.73,1.63-1.63,1.63h-10.45c-.9,0-1.63-.73-1.63-1.63s.73-1.63,1.63-1.63Z"/>
        <path class="cls-6" d="m368.51,594.61v29.72c0,1.84,1.49,3.33,3.33,3.33h29.91c1.83,0,3.33-1.49,3.33-3.33v-29.72h-36.57Zm18.28,26.69c-5.97,0-10.83-4.86-10.83-10.83s4.8-10.83,10.83-10.83,10.83,4.73,10.83,10.83-5.02,10.83-10.83,10.83Z"/>
        <path class="cls-6" d="m394.99,605.69c-.76.07-1.51.21-2.24.41-4.06,1.1-7.81,3.96-12.26,4.03-1.08.01-2.15-.13-3.16-.32-.02.22-.03.45-.03.67,0,5.24,4.26,9.5,9.5,9.5s9.5-4.15,9.5-9.5c0-1.67-.44-3.32-1.3-4.79h0Zm-12.82,8.74c-.55,0-1-.45-1-1s.45-1,1-1,1,.45,1,1-.45,1-1,1Zm4.91,2.64c-.55,0-1-.45-1-1s.45-1,1-1,1,.45,1,1-.45,1-1,1Zm4.12-5.16c-.55,0-1-.45-1-1s.45-1,1-1,1,.45,1,1-.45,1-1,1Z"/>
      </g>
      <path class="cls-6" d="m372.4,625.76h28.68c0,2.06-1.68,3.74-3.74,3.74h-21.2c-2.06,0-3.74-1.68-3.74-3.74h0Z"/>
    </g>
  </g>
  <g>
    <circle class="cls-4" cx="295.15" cy="515.44" r="45.55"/>
    <g>
      <g>
        <path class="cls-6" d="m304.84,529l-31.42-19.73c-.11-.07-.13-.16-.06-.27l1.07-1.7c.07-.11.16-.13.27-.06l31.37,19.7c.11.07.13.16.06.27l-1.07,1.7c-.01.14-.1.16-.21.1h0Z"/>
        <path class="cls-6" d="m318.54,522.44l5.62-8.95c.24-.38.21-.94-.14-1.24-21.99-20.24-43.62-9.7-47.63-7.47-.34.17-.32.64-.05.81l31.09,19.53c.22.14.54.11.74-.07,2.66-2.16,6.27-3.03,9.58-2.33.34.06.61,0,.78-.27h0Zm-10.98-4.6c-.11-.07-.15-.25-.08-.36l.52-.82c.07-.11.03-.29-.08-.36l-6.32-3.97c-.11-.07-.29-.03-.36.08l-.52.82c-.07.11-.25.15-.36.08l-6.87-4.31c-.33-.21-.29-.64.05-.81,2.61-1.35,12.27-5.39,22.16,3.5.35.3.38.85.14,1.24l-3.97,6.32c-.31.49-1.03.66-1.52.35l-2.8-1.76Z"/>
      </g>
      <g>
        <path class="cls-6" d="m291.51,526.52l1.96-3.12-1.25-.78-2.67,4.24.52.42c1.67,1.22,2.08,3.48.98,5.23-1.14,1.81-3.58,2.37-5.39,1.23l-.31-.2-.59-.45-.45.59c-.38.46-1.14.85-2.11.59-.97-.26-1.72-1.43-1.76-2.32l-.07-1-.89.31c-.65.2-1.7.07-2.73-.93-.9-.92-1.32-2.75-.44-4.02l.45-.59-.59-.45c-1.15-.81-1.46-2.39-.71-3.58.78-1.25,2.41-1.62,3.66-.84.25.16.4.34.55.52l.65.76,3.14-4.99-1.25-.78-2.16,3.43c-1.92-1.38-4.69-.85-5.98,1.21-1.06,1.69-.74,3.8.59,5.16-.79,1.68-.42,4,.96,5.39,1.18,1.17,2.43,1.53,3.43,1.46.27.95.97,1.92,1.85,2.47.25.16.6.29.89.38,1.32.39,2.45-.03,3.24-.58,2.54,1.51,5.77.66,7.33-1.84,1.35-2.29.9-5.18-.88-6.91h0Z"/>
        <path class="cls-6" d="m285.05,518.11l1.25.78-4.04,6.43-1.25-.78,4.04-6.43Z"/>
        <path class="cls-6" d="m275.68,512.23l1.25.78-2.27,3.62-1.25-.78,2.27-3.62Z"/>
        <path class="cls-6" d="m299.03,526.89l1.25.78-4.27,6.8-1.25-.78,4.27-6.8Z"/>
      </g>
    </g>
  </g>
  <g>
    <circle class="cls-4" cx="512" cy="640.64" r="45.55"/>
    <g>
      <path class="cls-6" d="m527.15,641.42c-.07-.35-.19-.64-.37-.86-.15-.19-.29-.28-.35-.3-.02,0-.05-.03-.09-.06-.56-.47-2.16-.51-3.57-.08-.41.12-7.17,3.19-11.6,5.21.12.3.21.65.26,1.05.06.5-.07,1.35-.64,2.08-.64.82-1.66,1.3-3.02,1.45-.35.04-.96.08-1.61.13h0c-.58.04-1.18.08-1.68.13-1.12.1-2.87.35-4.81.7-.39.07-.74.17-1.08.27-1.01.34-1.67.75-1.68.76l-.03-.04c-.11.07-.19.11-.19.11-.18,0-.35-.12-.4-.29-.05-.18.02-.37.17-.47.05-.03,1.28-.82,3.07-1.14,1.96-.35,3.74-.61,4.88-.71.51-.04,1.11-.09,1.7-.13.64-.05,1.25-.09,1.59-.13,1.13-.12,1.95-.51,2.46-1.14.45-.57.51-1.18.47-1.46-.07-.56-.22-.98-.45-1.28-.58-.73-1.83-.95-4.46-.79-.71.04-1.45.09-2.16.14-1.75.12-3.41.23-4.7.25-2.13.04-3.72.13-5.98.18-6.4.05-8.5,2.12-10.93,5.38,0,0-6,8.04,1.3,14.19.35.29.87.23,1.13-.15,1.47-2.14,4.43-6.22,9.72-7.29.71-.14,7.28-1.09,13.55-1.25,1.09-.08,1.94-.8,1.95-.8,8.24-7.13,15.64-11.53,15.71-11.57,0,0,0,0,.01,0,1.27-.7,1.96-1.47,1.85-2.07h0Z"/>
      <path class="cls-6" d="m496.85,639.86c.07.35.19.64.37.86.15.19.29.28.35.3.02,0,.05.03.09.06.56.47,2.16.51,3.57.08.41-.12,7.17-3.19,11.6-5.21-.12-.3-.21-.65-.26-1.05-.06-.5.07-1.35.64-2.08.64-.82,1.66-1.3,3.02-1.45.35-.04.96-.08,1.61-.13h0c.58-.04,1.18-.08,1.68-.13,1.12-.1,2.87-.35,4.81-.7.39-.07.74-.17,1.08-.27,1.01-.34,1.67-.75,1.68-.76l.03.04c.11-.07.19-.11.19-.11.18,0,.35.12.4.29.05.18-.02.37-.17.47-.05.03-1.28.82-3.07,1.14-1.96.35-3.74.61-4.88.71-.51.04-1.11.09-1.7.13-.64.05-1.25.09-1.59.13-1.13.12-1.95.51-2.46,1.14-.45.57-.51,1.18-.47,1.46.07.56.22.98.45,1.28.58.73,1.83.95,4.46.79.71-.04,1.45-.09,2.16-.14,1.75-.12,3.41-.23,4.7-.25,2.13-.04,3.72-.13,5.98-.18,6.4-.05,8.5-2.12,10.93-5.38,0,0,6-8.04-1.3-14.19-.35-.29-.87-.23-1.13.15-1.47,2.14-4.43,6.22-9.72,7.29-.71.14-7.28,1.09-13.55,1.25-1.09.08-1.94.8-1.95.8-8.24,7.13-15.64,11.53-15.71,11.57,0,0,0,0-.01,0-1.27.7-1.96,1.47-1.85,2.07h0Z"/>
    </g>
  </g>
  <g>
    <circle class="cls-4" cx="728.85" cy="265.04" r="45.55"/>
    <g>
      <path class="cls-3" d="m716.38,269.19h24.94c1.46,0,2.64,1.19,2.64,2.64h0c0,1.45-1.19,2.64-2.64,2.64h-24.94c-1.46,0-2.64-1.19-2.64-2.64h0c0-1.45,1.19-2.64,2.64-2.64Z"/>
      <path class="cls-3" d="m740.6,292.41l1.55-16.19c-.27.05-.55.08-.83.08h-24.94c-.28,0-.56-.03-.83-.08l1.55,16.19c.24,2.49,2.31,4.37,4.81,4.37h13.89c2.5,0,4.57-1.88,4.81-4.37h0Z"/>
      <path class="cls-6" d="m725.36,237c.33-1.3.43-2.6.33-3.69.87.65,1.95,1.63,2.93,2.71-.87.43-1.74.87-2.5,1.52-.22-.22-.43-.33-.76-.54Zm4.45,3.15c1.19-.76,2.28-1.41,3.36-1.95.11-1.19.54-2.28.98-3.26-1.85.65-4.67,1.52-7.06,3.15.98.65,1.85,1.3,2.71,2.06Zm7.06,8.36c-.33-1.63-.98-3.47-1.09-5.32-.22-1.85,0-3.69.65-5.32-1.52.76-3.69,1.74-5.75,3.04,1.63,1.63,3.15,3.47,4.02,5.75,1.63,4.02.22,8.14-1.95,10.42-.65.65-1.3,1.3-2.06,1.74.76,0,1.41,0,2.06-.22,2.39-.65,3.8-2.17,4.45-3.91.54-1.74.33-3.8-.33-6.19Zm-4.88,7.92c1.95-2.06,3.15-5.86,1.74-9.33-2.39-5.86-9.01-9.23-12.48-11.07.54,1.63.87,3.69.65,5.75-.11,2.06-.76,4.12-1.09,5.86-.54,2.6-.87,4.88-.33,6.84s1.95,3.58,4.45,4.23c2.28.54,5.21-.22,7.06-2.28Zm-2.15,16.44h-2.56l.48-12.61h1.37l.71,12.61Z"/>
    </g>
  </g>
</svg>