<?xml version="1.0" encoding="UTF-8"?>
<svg id="Layer_1" data-name="Layer 1" xmlns="http://www.w3.org/2000/svg" viewBox="0 0 1024 780.49">
  <defs>
    <style>
      .cls-1 {
        fill: #fff;
        stroke-width: 0px;
      }
    </style>
  </defs>
  <path class="cls-1" d="m484.75,301.84c-34.52,38.61-51.78,74.26-51.78,106.96,19.53,7.72,29.3,22.03,29.3,42.92,0,13.18-4.09,24.7-12.27,34.58-8.17,9.88-20.33,14.82-36.45,14.82-13.17,0-23.9-5.34-32.19-16.01-8.29-10.67-12.43-23.62-12.43-38.83,0-30.2,7.84-58.53,23.51-84.99,15.67-26.45,39.62-53.77,71.88-81.93l20.44,22.48Zm170.33,0c-34.52,38.61-51.78,74.26-51.78,106.96,19.53,7.72,29.29,22.03,29.29,42.92,0,13.18-4.08,24.7-12.26,34.58-8.18,9.88-20.33,14.82-36.45,14.82-13.18,0-23.9-5.34-32.19-16.01-8.29-10.67-12.44-23.62-12.44-38.83,0-30.2,7.84-58.53,23.51-84.99,15.67-26.45,39.63-53.77,71.88-81.93l20.44,22.48Z"/>
  <path class="cls-1" d="m484.75,301.84c-34.52,38.61-51.78,74.26-51.78,106.96,19.53,7.72,29.3,22.03,29.3,42.92,0,13.18-4.09,24.7-12.27,34.58-8.17,9.88-20.33,14.82-36.45,14.82-13.17,0-23.9-5.34-32.19-16.01-8.29-10.67-12.43-23.62-12.43-38.83,0-30.2,7.84-58.53,23.51-84.99,15.67-26.45,39.62-53.77,71.88-81.93l20.44,22.48Zm170.33,0c-34.52,38.61-51.78,74.26-51.78,106.96,19.53,7.72,29.29,22.03,29.29,42.92,0,13.18-4.08,24.7-12.26,34.58-8.18,9.88-20.33,14.82-36.45,14.82-13.18,0-23.9-5.34-32.19-16.01-8.29-10.67-12.44-23.62-12.44-38.83,0-30.2,7.84-58.53,23.51-84.99,15.67-26.45,39.63-53.77,71.88-81.93l20.44,22.48Z"/>
</svg>