<?xml version="1.0" encoding="utf-8"?>
<!-- Generator: Adobe Illustrator 27.9.0, SVG Export Plug-In . SVG Version: 6.00 Build 0)  -->
<svg version="1.1" id="Layer_1" xmlns="http://www.w3.org/2000/svg" xmlns:xlink="http://www.w3.org/1999/xlink" x="0px" y="0px"
	 viewBox="0 0 1024 780.5" style="enable-background:new 0 0 1024 780.5;" xml:space="preserve">
<style type="text/css">
	.st0{fill:#7C376A;}
	.st1{fill:#FFFFFF;}
</style>
<g>
	<circle class="st0" cx="512" cy="390.2" r="184.9"/>
	<g>
		<g>
			<path class="st1" d="M545.3,377.2l58.2-111.8c2.1-4.2,0.4-9.4-3.8-11.4c-4.2-2.1-9.3-0.5-11.4,3.8l-58.1,111.7
				c2.8,0.6,5.6,1.5,8.1,2.8C540.8,373.6,543.1,375.3,545.3,377.2L545.3,377.2z"/>
			<path class="st1" d="M535.7,441.1l-46.7-23.5c-2.7-1.4-5.9-0.7-7.9,1.6c-10.7,12.1-23.5,22.3-38,29.8l-19.8,10.4
				c0,0-0.3,0.3-0.4,0.4c-0.3,0.2-0.5,0.5-0.8,0.7c-0.2,0.2-0.4,0.4-0.5,0.7c0,0-0.8,0.1-0.8,0.1c-0.3,0.5-1.1,1.1-1.1,1.8l0,0
				c0,3.8,4.3,9.1,11.2,15.2c2.7,2.4,6.7,2.2,9.2-0.4l16.1-17l-11.1,20.7c-1.6,3-0.8,6.7,2.1,8.5c4.1,2.7,8.6,5.5,13.4,8.2
				c3.1,1.7,6.9,0.7,8.8-2.3l21.9-34.8l-12.5,40c-1,3.2,0.6,6.6,3.6,8c3.9,1.7,7.7,3.3,11.4,4.8c3.4,1.3,7.2-0.5,8.4-4l11.9-33
				l-5.7,35.8c-0.6,3.4,1.7,6.7,5.1,7.5c5.3,1.3,9.9,1.9,13.5,1.9c4.7,0,7.8-1.1,8.9-3.3c0,0,0-0.1,0-0.2c0.1-0.2,0.1-0.5,0.2-0.7
				c0.1-0.4,0.1-0.8,0.1-1.2c0-0.2,0.1-0.3,0.1-0.5l-3.4-22.1C530.3,476.4,531.2,458.4,535.7,441.1L535.7,441.1L535.7,441.1z"/>
			<path class="st1" d="M534.3,379.8c-3.6-1.8-7.6-2.7-11.5-2.7c-2.7,0-5.4,0.4-8,1.3c-6.4,2.1-11.8,6.7-14.8,12.7
				c-3,6-6.5,11.7-10.3,17.2l48.4,24.4c2.1-6.3,4.6-12.5,7.6-18.5C552,401.6,547,386.2,534.3,379.8L534.3,379.8L534.3,379.8z"/>
			<path class="st1" d="M569.3,519.6c0,4.3-3.5,7.9-7.9,7.9c-4.3,0-7.9-3.5-7.9-7.9s3.5-7.9,7.9-7.9
				C565.8,511.8,569.3,515.3,569.3,519.6"/>
			<path class="st1" d="M585.1,496c0,4.3-3.5,7.9-7.9,7.9c-4.3,0-7.9-3.5-7.9-7.9c0-4.3,3.5-7.9,7.9-7.9
				C581.5,488.1,585.1,491.7,585.1,496"/>
		</g>
		<path class="st1" d="M559.9,499c0,4.3-3.5,7.9-7.9,7.9c-4.3,0-7.9-3.5-7.9-7.9s3.5-7.9,7.9-7.9C556.4,491.2,559.9,494.7,559.9,499
			"/>
	</g>
</g>
</svg>
