<?xml version="1.0" encoding="utf-8"?>
<!-- Generator: Adobe Illustrator 27.9.0, SVG Export Plug-In . SVG Version: 6.00 Build 0)  -->
<svg version="1.1" id="Layer_1" xmlns="http://www.w3.org/2000/svg" xmlns:xlink="http://www.w3.org/1999/xlink" x="0px" y="0px"
	 viewBox="0 0 1024 780.5" style="enable-background:new 0 0 1024 780.5;" xml:space="preserve">
<style type="text/css">
	.st0{fill:#7C376A;}
	.st1{fill:#FFFFFF;}
</style>
<g>
	<circle class="st0" cx="512" cy="390.2" r="184.9"/>
	<g>
		<path class="st1" d="M635.6,464.7h-90v21.1h36.1c15.7,0,22.5-0.1,30.8-0.1h24.1c7.5,0,8.3-6.4,8.3-6.4v-5.4
			C644.9,473.9,645.4,464.7,635.6,464.7L635.6,464.7L635.6,464.7z"/>
		<path class="st1" d="M623.2,459.3c12.3,0,22.3-10,22.3-22.3s-10-22.3-22.3-22.3s-22.3,9.9-22.3,22.3S610.8,459.3,623.2,459.3
			L623.2,459.3z"/>
		<path class="st1" d="M576.1,460.6c11.7,0,21.1-9.5,21.1-21.1c0-11.6-9.3-18.3-21-18.4l-30.7,3.2v36.2H576.1L576.1,460.6z"/>
		<path class="st1" d="M476,314c13.7,0,24.7-11.1,24.7-24.7c0-13.6-11.1-24.7-24.7-24.7s-24.7,11.1-24.7,24.7
			C451.2,303,462.3,314,476,314L476,314z"/>
		<path class="st1" d="M450.7,394c0,0-0.2-0.2-0.2-0.3l-11.2-26.4v51.3h33.5l7.3-7.3l-19.9-7.4C455.5,402.1,452.2,398.3,450.7,394
			L450.7,394L450.7,394z"/>
		<path class="st1" d="M457.8,391.6c1.1,2.4,3.1,4.4,5.6,5.3l38.2,14.1c4.9,2.2,10.6-0.1,12.7-5c2.2-4.9-0.1-10.6-5-12.7L474.1,380
			l-10.9-26l7.1-2.6l9.3,22.3l26.9,9.9v-27.2l14.2,8.4l7.1,35.6c1.7,5.1,7.2,7.8,12.3,6c5-1.7,7.7-7.3,6-12.3l-8-34.2
			c-0.5-1.9-1.6-3.6-3.1-4.8c-4.1-4.5-24.7-27.1-26.2-28.6c-2.2-2.2-7.1-5.7-16.4-5.7h-33.4c-19,0-22.6,18.9-18.7,28.7L457.8,391.6
			L457.8,391.6z"/>
		<path class="st1" d="M540.1,422.6H389.4c-5.5,0-10.9,5.5-10.9,12.2c0,1.6,0,4.4,0,4.4v46.4h12.9h148.6V422.6L540.1,422.6z"/>
	</g>
</g>
</svg>
