<?xml version="1.0" encoding="utf-8"?>
<!-- Generator: Adobe Illustrator 27.9.0, SVG Export Plug-In . SVG Version: 6.00 Build 0)  -->
<svg version="1.1" id="Layer_1" xmlns="http://www.w3.org/2000/svg" xmlns:xlink="http://www.w3.org/1999/xlink" x="0px" y="0px"
	 viewBox="0 0 1024 780.5" style="enable-background:new 0 0 1024 780.5;" xml:space="preserve">
<style type="text/css">
	.st0{fill:#7C376A;}
	.st1{fill:#FFFFFF;}
</style>
<g>
	<circle class="st0" cx="512" cy="390.2" r="184.9"/>
	<g>
		<path class="st1" d="M441.7,401.8v95c0,6.1,4.9,11,11,11h118.6c6.1,0,11-4.9,11-11v-95"/>
		<path class="st1" d="M600.6,401.4c-0.6,0-1.2-0.2-1.7-0.6L512,336.9L425,400.8c-1.2,0.9-3,0.7-4-0.6c-0.9-1.3-0.7-3,0.6-4
			l90.3-66.4l90.3,66.4c1.3,0.9,1.5,2.7,0.6,4C602.3,401,601.4,401.3,600.6,401.4L600.6,401.4z"/>
		<path class="st1" d="M512,336.2c-1.6,0-2.8-1.3-2.8-2.8v-13.9h2.8c12.1,0,22-9.9,22-22s-9.9-22-22-22s-22,9.9-22,22
			c0,1.6-1.3,2.8-2.8,2.8c-1.6,0-2.8-1.3-2.8-2.8c0-15.2,12.4-27.7,27.7-27.7c15.2,0,27.7,12.4,27.7,27.7
			c0,14.3-10.9,26.1-24.8,27.5v8.4C514.8,335,513.6,336.2,512,336.2L512,336.2z"/>
	</g>
</g>
</svg>
