<?xml version="1.0" encoding="utf-8"?>
<!-- Generator: Adobe Illustrator 27.9.0, SVG Export Plug-In . SVG Version: 6.00 Build 0)  -->
<svg version="1.1" id="Layer_1" xmlns="http://www.w3.org/2000/svg" xmlns:xlink="http://www.w3.org/1999/xlink" x="0px" y="0px"
	 viewBox="0 0 1024 780.5" style="enable-background:new 0 0 1024 780.5;" xml:space="preserve">
<style type="text/css">
	.st0{fill:#7C376A;}
	.st1{fill:#FFFFFF;}
	.st2{fill:none;stroke:#7C376A;stroke-width:1.3641;stroke-miterlimit:10;}
	.st3{fill:none;stroke:#FFFFFF;stroke-width:1.2701;stroke-miterlimit:10;}
	.st4{fill:none;}
</style>
<g>
	<circle class="st0" cx="512" cy="390.3" r="184.9"/>
	<g>
		<g>
			<g>
				<path class="st1" d="M435.9,240.1h-0.2c-3.5,0-6.8,1.4-9.5,3.9c-2.8,2.7-4.4,6.6-4.4,10.5v49c0,11.1,7.1,16.2,13.9,16.2
					c6.8,0,13.9-5.1,13.9-16.2v-49.3C449.6,246.6,443.6,240.2,435.9,240.1L435.9,240.1z M436.4,264.4c-0.3,0.6-1.1,0.6-1.4,0l-3.1-6
					c1.2-0.8,2.5-1.1,3.8-1.1c1.3,0,2.6,0.4,3.8,1.1L436.4,264.4L436.4,264.4z"/>
				<path class="st1" d="M423.6,323.4c0,0-0.1,0.3,0,0.4c1.2,6.8,2.9,13.5,5.2,20l5.6,15.9c0.4,1.3,2.2,1.3,2.7,0l5.6-15.9
					c2.4-6.7,4-13.5,5.3-20.5c0-0.2-0.1-0.4-0.3-0.4l-11.9,0.1h-11.5C424,323,423.8,323.2,423.6,323.4L423.6,323.4L423.6,323.4z"/>
			</g>
			<g>
				<path class="st1" d="M454.1,269.9c4,0.3,8,11.4,5.6,27.7l0,0c-1.2,8.3-3.7,14.9-6.2,19.3c-0.4,0.7-1.4,0.4-1.4-0.4l0,0V272
					c0-1.1,0.8-2.1,1.8-2.1H454.1L454.1,269.9z"/>
				<path class="st1" d="M417.5,269.9c1,0,1.8,1,1.8,2.1v43.7v0.8l0,0c0,0.8-1,1.1-1.4,0.4c-2.5-4.5-5-11-6.2-19.3l0,0
					c-2.4-16.3,1.6-27.3,5.6-27.7L417.5,269.9L417.5,269.9z"/>
			</g>
		</g>
		<path class="st1" d="M466.3,321.2v5.3H361.2v170.9c-0.9-1.3-1.8-2.5-2.6-3.8c-0.9-1.3-1.8-2.7-2.6-4V321.1L466.3,321.2
			L466.3,321.2z"/>
		<path class="st1" d="M516.5,414.1c-3.2,4.5-5.7,8.8-5.7,9.6c0,3.6-7.2,8.6-12.6,8.6c-3,0-6.3,0.5-7.2,1.1c-0.9,0.6-2.7,5.5-4,10.8
			c-1.2,5.3,5,12.1,6.5,17.2c1.8,6.1,0,11.1-3.3,15c-5.7,6.8-10,9.1-24.6,10.1c-2.7,1.1-7,13.4-7.1,14.9c0,3.2-4.5,16.2-8.6,25.4
			c-1.9,4.3-3.4,11.3-4,18.1c-0.5,6.5-1.5,11.2-4.3,16.6c-34.1-14-63-37.8-83.3-67.9c-3.4-5-6.5-10.3-9.4-15.6
			c1-0.2,2.2-0.4,3.4-0.7c1.9-0.4,4-0.8,6-1.2c7-1.4,14-2.7,17.1-3.2c17.4-2.8,18.8-3.6,25.8-14.4c11.5-17.7,11.6-18.1,8.6-29.2
			c-0.4-1.4-3.8-3.5-7.8-4.8c-7.2-2.4-13-7.8-13-12.2c0-1.3-1.3-4.9-2.9-8.1c-1.6-3.1-2.9-7.6-2.9-9.9s-1-8.1-2.3-12.8
			c-2.3-8.9-1.4-12.7,3-12.7c4.7,0,16.5,6.9,24.5,14.3c4.8,4.5,11.9,10.7,15.6,13.7l6.8,5.6l8.2-1.7c6.8-1.4,10.3-1.3,20.5,0.8
			l12.3,2.4l16.9-8.7c17.6-9,22.9-11.1,33.2-12.7c4.8-0.8,6.4-0.5,7,1.3C530.3,386.9,523,404.8,516.5,414.1L516.5,414.1z"/>
		<g>
			<path class="st1" d="M556.6,537.4c0,12.4-5,23.6-13.1,31.8c-1.5,1.5-3.1,2.9-4.8,4.1c-8.7,1.3-17.6,1.9-26.8,1.9
				c-9.5,0-18.9-0.7-28-2.1l0,0c-1.6-1.2-3.1-2.5-4.5-4c-8.1-8.1-13.1-19.4-13.1-31.8c0-7.2,1.7-14.1,4.7-20.1
				c0.1-0.3,0.3-0.7,0.5-1c2.1-3.9,4.7-7.5,7.8-10.6h64.3c3.3,3.4,6.1,7.2,8.2,11.5c0.4,0.8,0.8,1.5,1.1,2.3
				C555.3,525,556.6,531.1,556.6,537.4L556.6,537.4z"/>
			<path class="st2" d="M471.1,517.3c5.3,1.5,10.4,4.8,18.8,2.9c11.6-2.6,18.5-7.4,46.4,2.6c6.5,2.4,11.8,0.9,16.6-3.2"/>
			<g>
				<path class="st1" d="M490.9,540.7c-0.3,0-0.6,0.2-0.8,0.5c-0.1,0.3,0,0.7,0.2,0.9c0.2,0.2,0.6,0.3,0.9,0.2
					c0.3-0.1,0.5-0.4,0.5-0.8C491.7,541.1,491.4,540.7,490.9,540.7L490.9,540.7L490.9,540.7z"/>
				<path class="st0" d="M535.4,544.3c2.1-1.2,4.3-4.5,4.5-6.2c0-0.4-0.1-0.8-0.4-1.1s-0.7-0.4-1-0.4c-4.8,0.4-8,3.5-9.7,5.2
					c-0.2,0.2-0.5,0.4-0.6,0.6c-5.3-4.6-10.7-6.8-15.5-7.8c0.3-0.7,0.7-1.5,0.9-1.9c0.2-0.2,0.2-0.5,0.3-0.8c0-0.3,0-0.6-0.2-0.8
					c-0.1-0.2-0.3-0.5-0.6-0.6c-0.2-0.1-0.5-0.2-0.8-0.2c-1.5,0-3.3,0.2-5.3,0.8c-2,0.6-4.2,1.7-6.4,3.4c-1.1,0.2-2.3,0.5-3.4,0.8
					s-2.3,0.7-3.3,1.1c0,0,0,0,0,0c-4.6,1.8-8.3,4.4-10.4,6.9c-0.2,0.3-0.4,0.6-0.4,1c0,0.4,0.1,0.7,0.4,1c2.2,2.5,5.8,5.1,10.5,7
					c0,0,0,0,0.1,0c3.1,1.2,6.4,2,9.6,2.3c2.5,2.9,5.6,3.2,7.4,3.2h0.6c0.2,0,0.5-0.1,0.7-0.2c0.2-0.1,0.4-0.3,0.5-0.5
					c0.2-0.4,0.2-1-0.1-1.4l-0.9-1.4c5-0.8,10.8-3.1,16.4-8c0.2,0.1,0.4,0.4,0.6,0.6c1.7,1.7,4.8,4.8,9.7,5.2c0.4,0,0.8-0.1,1-0.4
					c0.3-0.3,0.4-0.7,0.4-1.1C539.8,548.9,537.6,545.6,535.4,544.3L535.4,544.3z M496.1,546.8c-0.3,0.8-0.8,1.6-1.2,2.2
					c-0.5,0.7-0.9,1.4-1.2,2.1c-4.2-1.7-7.6-4.1-9.6-6.5c-0.1-0.1-0.1-0.2-0.1-0.3c0-0.1,0-0.2,0.1-0.3c2-2.4,5.4-4.8,9.7-6.5
					C495.3,539.1,497.2,543.3,496.1,546.8L496.1,546.8z"/>
			</g>
		</g>
		<path class="st1" d="M657.3,504.6c-19.5,24.7-45.1,44.4-74.6,56.6c-0.2-1.2-0.5-2.4-0.9-3.4c-1.7-5.3-4.3-10.3-6.5-15.3
			c-8.1-19-10.2-35-5.6-55.1c1.8-7.9,4.6-15.7,5.5-23.7c0.4-4,0.3-7.6-1.8-11.1c-1.3-2.1-3.1-3.8-4.9-5.5c0,0-0.1-0.1-0.1-0.1
			c-1.9-1.8-3.5-3.7-4.8-5.7c-1.3-2-2.4-4.2-3.1-6.4c-2.4-7.1-1.8-15.1,1.3-23.7l0.2-0.7c-4.1-5.6-7-15.2-7.8-28
			c11.3,2.7,20.5,8.6,24.5,11.2c3.3,1.6,6.2-1,16.3-1.2c6.1-0.1,8.6,0.7,12.6,1.4c1.9,0.3,3.1,1.2,4.9,0.8c2-0.4,4.8-2.6,6.4-4
			c6.8-5.4,11.5-7.3,19.2-9.9c2.4,16-4.8,26.7-8.8,31.8c3.5,7.3,4.1,14.8,1.8,22.1c-0.7,2.3-1.6,4.5-2.9,6.7
			c-0.4,0.7-0.8,1.4-1.2,2.1c-1.1,1.7-2.1,3.1-3.1,4.3l0,0c-3.3,4.5-5,6.4-4,13.5c0.6,4.1,1.8,8.9,6.6,13.3c4.7,4.2,8.5,7,12.2,10.4
			C647.8,493.5,653.2,499.2,657.3,504.6L657.3,504.6z"/>
		<path class="st3" d="M579.9,436.5c0,0-24-4.2-53.2,0"/>
		<path class="st3" d="M582,439.8c0,0-30.7,0.7-53,8.8"/>
		<path class="st3" d="M582.8,443c0,0-20.6,3.1-39,16.3"/>
		<path class="st3" d="M609.8,436.5c0,0,24-4.2,53.2,0"/>
		<path class="st3" d="M607.8,439.8c0,0,30.7,0.7,53,8.8"/>
		<path class="st3" d="M606.9,443c0,0,20.6,3.1,39,16.3"/>
		<path class="st4" d="M696.9,390.3c0,6-0.3,11.9-0.8,17.6c-0.4,4.5-1,8.8-1.7,13.2c-0.8,4.4-1.6,8.7-2.6,12.9
			c-0.9,3.6-1.9,7.2-3,10.7c-3.3,11-7.7,21.5-13,31.5c-2.3,4.3-4.8,8.6-7.3,12.7c-3.4,5.4-7.1,10.6-11,15.6
			c-19.5,24.7-45.1,44.4-74.6,56.6c-13.9,5.7-28.6,9.9-44,12.1c-8.7,1.3-17.6,1.9-26.8,1.9c-9.1,0-18.9-0.7-28-2.1
			c-7.3-1.1-14.5-2.6-21.5-4.6c-7-1.9-13.9-4.3-20.5-7c-4.1-1.7-8.1-3.5-12-5.5c-2-0.9-3.9-2-5.8-3c-0.8-0.5-1.7-0.9-2.6-1.5
			c-1-0.6-2.1-1.2-3.1-1.8c-0.9-0.5-1.9-1.1-2.8-1.7c-0.8-0.5-1.5-0.9-2.3-1.4c-1.1-0.7-2.2-1.4-3.2-2.1c-0.9-0.6-1.8-1.2-2.7-1.8
			c-0.8-0.6-1.7-1.2-2.6-1.8c0,0-0.1-0.1-0.2-0.1c-0.8-0.6-1.7-1.3-2.5-1.9c-0.9-0.7-1.7-1.3-2.6-2c-0.8-0.7-1.7-1.3-2.6-2
			c-1.7-1.4-3.4-2.8-5-4.2c-1.6-1.4-3.2-2.8-4.8-4.3l-2.4-2.2c-6.3-6-12.1-12.4-17.5-19.2c-0.7-0.8-1.3-1.7-2-2.6
			c-0.7-0.8-1.3-1.7-2-2.6c-0.7-0.8-1.3-1.7-1.9-2.6c-0.9-1.3-1.8-2.5-2.6-3.8c-0.9-1.3-1.8-2.7-2.6-4c-1.3-2-2.5-4.1-3.7-6.2
			c-0.5-0.8-0.9-1.6-1.4-2.4c-0.6-1-1.1-2-1.7-3.1c-14.1-26.1-22.1-55.9-22.1-87.6c0-102.1,82.8-184.9,184.9-184.9
			s184.9,82.8,184.9,184.9L696.9,390.3z"/>
		<path class="st1" d="M690.3,434.1c0.4,0,0.9,0.1,1.3,0.1c-0.9,3.6-1.9,7.2-3,10.7c-0.7-0.1-1.4-0.4-2.1-0.7
			c-2.3-0.9-4.5-2.4-5.4-4.7c-0.9-2.3,0-5.4,2.3-6.3C685.6,432.4,688,433.7,690.3,434.1z"/>
		<path class="st1" d="M696,408c-0.4,4.5-1,8.8-1.7,13.2c-7.9-2.6-16.6,0.2-23.1,5.3c-8.8,7-10.6,20.2-8.5,28.4
			c2.2,8.6,7.5,15.5,12.9,21.4c-2.3,4.3-4.8,8.6-7.3,12.7c-5.6-6.5-10.6-13.4-14.4-21c-3.5-6.8-5.1-15.1-4.8-22.9l0,0
			c0.1-3.5,0.6-6.9,1.5-10c0.8-3.2,2-6.1,3.6-8.6c9.7-15.5,26.3-19.3,36.3-19.2C692.1,407.4,694.1,407.6,696,408L696,408z"/>
	</g>
</g>
</svg>
