<?xml version="1.0" encoding="UTF-8"?>
<svg id="Layer_1" data-name="Layer 1" xmlns="http://www.w3.org/2000/svg" viewBox="0 0 1024 780.49">
  <defs>
    <style>
      .cls-1, .cls-2, .cls-3 {
        fill: none;
      }

      .cls-1, .cls-4, .cls-5, .cls-6 {
        stroke-width: 0px;
      }

      .cls-2 {
        stroke: #fff;
        stroke-width: .27px;
      }

      .cls-2, .cls-3 {
        stroke-miterlimit: 10;
      }

      .cls-3 {
        stroke: #7c376a;
        stroke-width: .29px;
      }

      .cls-4 {
        fill-rule: evenodd;
      }

      .cls-4, .cls-6 {
        fill: #fff;
      }

      .cls-5 {
        fill: #7c376a;
      }
    </style>
  </defs>
  <g>
    <circle class="cls-5" cx="175.51" cy="390.24" r="39.31"/>
    <g>
      <path class="cls-6" d="m184.88,379.43c-2.41-.8-3.8-3.51-3-6,.8-2.56,3.51-3.95,6.07-3.15,2.56.8,3.88,3.44,3.07,6.07-.88,2.56-3.59,3.88-6.15,3.07Z"/>
      <path class="cls-6" d="m178.95,391c.07,0,.15-.07.22-.15,0-.15.07-.29.07-.37.22-.8.88-1.24,1.76-1.24.22,0,.37,0,.59-.07.66-.07,1.32-.15,1.9-.29,1.1-.37,2.05-.95,2.78-1.76l.29-.29c.22-.22.37-.44.59-.73.44-.59.66-1.32.8-2.05.15-.8-.22-1.61.07-2.41.22-.59.8-1.1,1.46-1.32,1.24-.44,2.63.15,3.44,1.17,1.68,2.05,2.85,4.46,3.8,6.88.73,1.98,1.24,4.02,1.46,6.15.15,2.05.15,4.39-.8,6.22-.73,1.39-1.9,1.61-3.37,1.76-.22.22-.22.44-.22.66v2.27c0,.95,0,1.9-.07,2.85,0,.88-.22,1.98-.66,2.85-.29.59-.8.95-1.46,1.1-3.59.8-3.22-5.85-3.22-7.68v-1.46c0-.15,0-.37-.07-.59-.88-.07-1.54-.15-2.05-.29-.29-.07-.59-.07-.88-.15-.51-.07-.8-.66-.59-1.1,1.02-2.05,1.68-4.39,2.12-6.29.29-1.17.44-2.2.51-2.93-.07-.15-.15-.29-.22-.22-1.02.8-2.34,1.17-3.59,1.32-1.1.15-2.71.37-3.73-.22-.22-.15-.37-.29-.51-.44-.15,0-.29.07-.44.29-.22.44-.07.95.15,1.39.22.37.73.66.73,1.1v14.12c0,.37-.29.73-.66.8-.44.07-.8-.29-.8-.73v-10.17c0-1.76,0-3.51-.59-5.27-.44-1.32.07-2.2,1.17-2.71h0Z"/>
      <path class="cls-6" d="m169.22,373.29c-.8-2.56-3.51-3.95-6.07-3.15-.22.07-.37.15-.59.22v-.07c-.51-1.61-2.2-2.49-3.8-1.9-1.54.51-2.41,2.12-1.9,3.73.44,1.32,1.68,2.12,3,2.05-.07.66,0,1.32.22,2.05.8,2.56,3.51,3.88,6.15,3.07,2.34-.8,3.8-3.51,3-6Z"/>
      <path class="cls-6" d="m172.07,390.85c-.07,0-.15-.07-.22-.15,0-.15-.07-.29-.07-.37-.22-.8-.88-1.24-1.76-1.24-.22,0-.37,0-.59-.07-.66-.07-1.32-.15-1.9-.29-1.1-.37-2.05-.95-2.78-1.76l-.29-.29c-.22-.22-.37-.44-.59-.73-.44-.59-.66-1.32-.8-2.05-.15-.8.22-1.61-.07-2.41-.22-.59-.8-1.1-1.46-1.32-1.24-.44-2.63.15-3.44,1.17-1.68,2.05-2.85,4.46-3.8,6.88-.73,1.98-1.24,4.02-1.46,6.15-.15,2.05-.15,4.39.8,6.22.73,1.39,1.9,1.61,3.37,1.76.22.22.22.44.22.66v2.27c0,.95,0,1.9.07,2.85,0,.88.22,1.98.66,2.85.29.59.8.95,1.46,1.1,3.59.8,3.22-5.85,3.22-7.68v-1.46c0-.15,0-.37.07-.59.88-.07,1.54-.15,2.05-.29.29-.07.59-.07.88-.15.51-.07.8-.66.59-1.1-1.02-2.05-1.68-4.39-2.12-6.29-.29-1.17-.44-2.2-.51-2.93.07-.15.15-.29.22-.22,1.02.8,2.34,1.17,3.59,1.32,1.1.15,2.71.37,3.73-.22.22-.15.37-.29.51-.44.15,0,.29.07.44.29.22.44.07.95-.15,1.39-.22.37-.73.66-.73,1.1v14.12c0,.37.29.73.66.8.44.07.8-.29.8-.73v-10.17c0-1.76,0-3.51.59-5.27.44-1.32-.07-2.2-1.17-2.71h0Z"/>
    </g>
  </g>
  <g>
    <circle class="cls-5" cx="271.65" cy="390.24" r="39.31"/>
    <g>
      <path class="cls-6" d="m273.62,370.45c2.71-.63,5.42,1.06,6.05,3.77.63,2.71-1.06,5.42-3.77,6.05-2.71.63-5.42-1.06-6.05-3.77-.63-2.71,1.06-5.42,3.77-6.05"/>
      <path class="cls-6" d="m284.1,387.54c2,1.8.77,4.47-4.01,9.61-1.03,1.08.77,1.65,3.65,1.8l-.62,8.23c-.15,1.7,1.29,3.14,3.03,2.98,1.39-.1,2.42-1.34,2.52-2.72l.67-8.64c.26,0,.57,0,.82-.05,0,.1.05.26.1.36l3.8,9.31c.62,1.59,2.57,2.26,4.06,1.34,1.18-.72,1.59-2.26,1.08-3.55l-3.39-8.28c2.47-.57,3.96-1.34,3.19-2.16-3.65-3.91-.15-8.69-8.12-14.14-3.65-2.52-7.45-6.32-10.08-3.6-1.85,1.9-2.52,4.01-2.78,5.04-.1.26-.31,1.03-.21,5.24l-3.39,2.42c-.98.72-1.39,2.06-.82,3.08.57,1.13,1.85,1.49,2.93,1.08.15-.05.31-.15.46-.26l4.47-3.24c.62-.46,1.03-1.18.98-1.95-.05-1.03-.05-2.21-.05-3.19l1.7,1.29h0Z"/>
      <path class="cls-6" d="m244.42,387.64c-.67.57-.77,1.54-.1,2.21l5.04,5.86v12.9c0,.82.67,1.54,1.54,1.54.82,0,1.54-.67,1.54-1.54v-6.27c0-.21.15-.41.41-.41h1.44c.21,0,.41.15.41.41v6.27c0,.82.72,1.54,1.54,1.54s1.54-.67,1.54-1.54v-12.9s5.04-5.86,5.04-5.86c.57-.67.51-1.64-.15-2.21-.67-.57-1.64-.51-2.21.15l-3.7,4.32c-.41.46-.98.72-1.59.72h-3.24c-.62,0-1.18-.26-1.59-.72l-3.7-4.32c-.57-.67-1.54-.72-2.21-.15h0Z"/>
      <path class="cls-6" d="m249.72,387.59c0-2.1,1.7-3.8,3.8-3.8,2.1,0,3.8,1.7,3.8,3.8,0,2.1-1.7,3.8-3.8,3.8-2.1,0-3.8-1.7-3.8-3.8"/>
      <path class="cls-6" d="m264.19,405.58v3.65c0,.51.41.93.93.93h3.65c.51,0,.93-.41.93-.93v-3.65c0-.51-.41-.93-.93-.93h-3.65c-.51,0-.98.41-.93.93Z"/>
      <path class="cls-6" d="m270.92,405.58v3.65c0,.51.41.93.93.93h3.65c.51,0,.93-.41.93-.93v-3.65c0-.51-.41-.93-.93-.93h-3.65c-.51,0-.93.41-.93.93Z"/>
      <path class="cls-6" d="m271.82,398c-.51,0-.93.41-.93.93v3.65c0,.51.41.93.93.93h3.65c.51,0,.93-.41.93-.93v-3.65c0-.51-.41-.93-.93-.93h-3.65Z"/>
      <path class="cls-6" d="m265.19,398.02c-.51,0-.93.41-.93.93v3.65c0,.51.41.93.93.93h3.65c.51,0,.93-.41.93-.93v-3.65c0-.51-.41-.93-.93-.93h-3.65Z"/>
      <path class="cls-6" d="m265.27,391.39c-.51,0-.93.41-.93.93v3.65c0,.51.41.93.93.93h3.65c.51,0,.93-.41.93-.93v-3.65c0-.51-.41-.93-.93-.93h-3.65Z"/>
    </g>
  </g>
  <g>
    <circle class="cls-5" cx="79.37" cy="390.24" r="39.31"/>
    <g>
      <g>
        <path class="cls-6" d="m86.44,387.46l12.37-23.76c.45-.9.09-1.99-.8-2.43-.9-.45-1.98-.1-2.43.8l-12.36,23.75c.6.13,1.18.32,1.72.6.56.28,1.05.65,1.5,1.04h0Z"/>
        <path class="cls-6" d="m84.4,401.04l-9.93-5c-.57-.29-1.26-.14-1.68.34-2.27,2.57-4.99,4.74-8.07,6.34l-4.21,2.2s-.06.06-.09.09c-.06.05-.11.1-.16.15-.04.05-.08.09-.11.14,0,0-.16.02-.17.03-.06.11-.23.24-.23.38h0c0,.8.91,1.94,2.38,3.24.57.5,1.43.47,1.95-.08l3.43-3.62-2.36,4.41c-.34.63-.16,1.42.44,1.81.87.58,1.83,1.17,2.85,1.75.65.37,1.47.15,1.87-.48l4.66-7.39-2.65,8.5c-.21.67.12,1.41.76,1.7.83.37,1.64.71,2.43,1.01.72.28,1.53-.11,1.79-.84l2.54-7.02-1.22,7.61c-.12.73.36,1.42,1.08,1.59,1.12.27,2.11.41,2.88.41.99,0,1.66-.23,1.9-.7,0-.01,0-.03.01-.04.03-.05.03-.1.04-.15.02-.08.03-.16.03-.25,0-.04.02-.07.02-.11l-.73-4.7c-.59-3.8-.39-7.64.55-11.33h0Z"/>
        <path class="cls-6" d="m84.12,388.03c-.77-.38-1.61-.58-2.45-.58-.58,0-1.15.09-1.7.27-1.37.45-2.5,1.43-3.15,2.71-.64,1.28-1.38,2.49-2.2,3.65l10.29,5.19c.44-1.34.98-2.66,1.62-3.93,1.35-2.68.27-5.95-2.41-7.3h0Z"/>
        <path class="cls-6" d="m91.55,417.74c0,.92-.75,1.67-1.67,1.67s-1.67-.75-1.67-1.67.75-1.67,1.67-1.67,1.67.75,1.67,1.67"/>
        <path class="cls-6" d="m94.9,412.72c0,.92-.75,1.67-1.67,1.67s-1.67-.75-1.67-1.67.75-1.67,1.67-1.67,1.67.75,1.67,1.67"/>
      </g>
      <path class="cls-6" d="m89.56,413.36c0,.92-.75,1.67-1.67,1.67s-1.67-.75-1.67-1.67.75-1.67,1.67-1.67,1.67.75,1.67,1.67"/>
    </g>
  </g>
  <g>
    <circle class="cls-5" cx="367.79" cy="390.24" r="39.31"/>
    <g>
      <path class="cls-6" d="m352.85,392.7v20.19c0,1.29,1.05,2.34,2.34,2.34h25.2c1.29,0,2.34-1.05,2.34-2.34v-20.19"/>
      <path class="cls-6" d="m386.62,392.61c-.12,0-.25-.04-.36-.12l-18.48-13.59-18.48,13.59c-.26.19-.64.14-.84-.13-.2-.27-.14-.64.13-.84l19.19-14.11,19.19,14.11c.27.2.32.57.13.84-.12.16-.3.24-.48.24Z"/>
      <path class="cls-6" d="m367.79,378.76c-.33,0-.6-.27-.6-.6v-2.96h.6c2.58,0,4.68-2.1,4.68-4.68s-2.1-4.68-4.68-4.68-4.68,2.1-4.68,4.68c0,.33-.27.6-.6.6s-.6-.27-.6-.6c0-3.24,2.64-5.88,5.88-5.88s5.88,2.64,5.88,5.88c0,3.04-2.32,5.54-5.28,5.85v1.79c0,.33-.27.6-.6.6Z"/>
    </g>
  </g>
  <g>
    <circle class="cls-5" cx="463.93" cy="390.24" r="39.31"/>
    <g>
      <g>
        <g>
          <path class="cls-6" d="m447.76,358.31h-.04c-.74,0-1.45.3-2.01.83-.6.57-.94,1.41-.94,2.24v10.41c0,2.36,1.52,3.44,2.96,3.44s2.95-1.08,2.95-3.44v-10.48c0-1.62-1.29-2.98-2.91-3Zm.1,5.16c-.06.12-.23.12-.29,0l-.66-1.28c.25-.16.53-.24.81-.24s.55.08.8.24l-.66,1.28Z"/>
          <path class="cls-6" d="m445.15,376.02s-.02.06-.01.09c.25,1.44.62,2.88,1.1,4.25l1.19,3.37c.09.27.47.27.57,0l1.19-3.37c.5-1.43.86-2.87,1.12-4.35,0-.05-.03-.09-.07-.09l-2.52.02h-2.44c-.05,0-.1.03-.12.07h0Z"/>
        </g>
        <g>
          <path class="cls-6" d="m451.62,364.65c.86.07,1.71,2.42,1.19,5.88h0c-.26,1.77-.78,3.16-1.32,4.11-.09.15-.3.08-.3-.09h0v-9.46c0-.24.17-.44.39-.44h.03Z"/>
          <path class="cls-6" d="m443.85,364.65c.22,0,.39.21.39.44v9.28s0,.17,0,.17h0c0,.18-.22.24-.3.09-.54-.95-1.06-2.34-1.32-4.11h0c-.52-3.47.34-5.81,1.19-5.88h.03Z"/>
        </g>
      </g>
      <path class="cls-6" d="m454.23,375.54v1.12h-22.35v36.33c-.19-.27-.38-.54-.56-.81-.19-.28-.38-.57-.56-.86v-35.79h23.48Z"/>
      <path class="cls-6" d="m464.9,395.3c-.67.95-1.21,1.87-1.21,2.04,0,.77-1.54,1.82-2.68,1.82-.64,0-1.33.11-1.53.23-.2.13-.58,1.16-.84,2.29-.26,1.13,1.06,2.58,1.39,3.66.39,1.3,0,2.36-.7,3.19-1.21,1.44-2.12,1.94-5.23,2.15-.58.24-1.49,2.85-1.5,3.16,0,.67-.95,3.45-1.83,5.4-.41.91-.73,2.4-.84,3.85-.1,1.38-.31,2.39-.91,3.52-7.24-2.97-13.4-8.03-17.71-14.44-.72-1.07-1.39-2.18-2-3.32.22-.04.46-.09.72-.15.41-.09.85-.17,1.28-.26,1.49-.3,2.97-.58,3.64-.69,3.69-.6,3.99-.77,5.48-3.07,2.44-3.77,2.46-3.85,1.83-6.21-.08-.29-.8-.74-1.66-1.02-1.54-.51-2.76-1.66-2.76-2.59,0-.28-.28-1.05-.62-1.72-.34-.66-.62-1.61-.62-2.1s-.21-1.72-.48-2.73c-.49-1.89-.3-2.71.63-2.71.99,0,3.5,1.46,5.2,3.04,1.03.95,2.53,2.27,3.32,2.91l1.45,1.18,1.74-.36c1.44-.3,2.18-.27,4.35.16l2.61.52,3.59-1.84c3.74-1.92,4.87-2.35,7.05-2.69,1.03-.16,1.35-.1,1.49.28.28.72-1.28,4.51-2.66,6.48Z"/>
      <g>
        <path class="cls-6" d="m473.41,421.5c0,2.63-1.06,5.02-2.78,6.75-.32.32-.65.61-1.01.88-1.86.27-3.75.41-5.69.41-2.03,0-4.02-.15-5.96-.45h0c-.34-.26-.66-.54-.96-.84-1.72-1.73-2.78-4.12-2.78-6.75,0-1.53.36-2.99,1-4.27.03-.07.07-.14.11-.21.44-.83,1-1.59,1.65-2.25h13.66c.71.72,1.3,1.54,1.75,2.45.08.16.16.32.23.49.5,1.16.78,2.45.78,3.79Z"/>
        <path class="cls-3" d="m455.24,417.23c1.13.31,2.21,1.03,4,.62,2.47-.56,3.93-1.57,9.87.55,1.39.5,2.51.2,3.52-.69"/>
        <g>
          <path class="cls-6" d="m459.45,422.21c-.07,0-.13.04-.16.11-.03.06-.01.14.04.19.05.05.12.06.19.04.06-.03.11-.09.11-.16,0-.09-.08-.17-.17-.17h0Z"/>
          <path class="cls-5" d="m468.92,422.97c.44-.26.91-.96.95-1.32,0-.08-.02-.17-.08-.23-.06-.06-.14-.09-.22-.08-1.03.08-1.7.74-2.06,1.1-.05.05-.1.09-.13.13-1.12-.98-2.27-1.45-3.29-1.66.06-.15.15-.32.2-.41.04-.05.05-.11.06-.17,0-.06,0-.12-.04-.18-.03-.05-.07-.1-.13-.13-.05-.03-.11-.05-.18-.05-.32,0-.71.04-1.13.18-.43.13-.9.36-1.36.73-.24.04-.49.1-.73.17s-.48.15-.71.24c0,0,0,0-.01,0-.98.39-1.76.94-2.21,1.47-.05.06-.08.13-.08.21s.03.15.08.22c.46.53,1.24,1.09,2.23,1.48,0,0,.01,0,.03.01.66.26,1.35.42,2.05.48.54.62,1.2.68,1.57.68h.12c.05,0,.1-.02.15-.05.04-.03.08-.06.11-.11.05-.09.04-.21-.02-.3l-.19-.29c1.06-.18,2.29-.66,3.49-1.7.04.03.08.08.13.13.36.36,1.03,1.02,2.06,1.1.08,0,.16-.02.22-.08.06-.06.09-.14.08-.23-.04-.36-.51-1.06-.95-1.32Zm-8.36.53c-.06.18-.16.33-.26.47-.1.15-.2.29-.25.45-.9-.37-1.61-.88-2.04-1.38-.02-.02-.03-.05-.03-.07s.01-.05.03-.07c.43-.5,1.15-1.01,2.06-1.39.31.37.72,1.25.48,1.99Z"/>
        </g>
      </g>
      <path class="cls-6" d="m494.83,414.54c-4.14,5.26-9.59,9.43-15.86,12.03-.05-.26-.11-.51-.19-.73-.36-1.12-.91-2.18-1.38-3.26-1.72-4.04-2.17-7.44-1.2-11.72.38-1.68.98-3.33,1.16-5.04.09-.86.06-1.62-.39-2.35-.27-.44-.65-.81-1.04-1.16-.01-.01-.02-.02-.03-.03-.41-.38-.75-.79-1.03-1.22-.28-.43-.51-.89-.66-1.37-.51-1.51-.39-3.22.27-5.03l.04-.14c-.87-1.2-1.48-3.23-1.65-5.96,2.4.57,4.36,1.83,5.21,2.39.71.35,1.31-.21,3.47-.25,1.3-.02,1.82.14,2.67.29.41.07.65.26,1.05.18.43-.09,1.01-.56,1.35-.84,1.45-1.14,2.44-1.56,4.09-2.11.5,3.4-1.03,5.67-1.87,6.76.74,1.55.87,3.14.39,4.7-.15.48-.35.95-.62,1.42-.08.15-.17.29-.26.44-.24.37-.45.66-.65.92,0,0,0,0,0,0-.71.95-1.06,1.35-.84,2.86.13.88.38,1.9,1.4,2.82,1,.9,1.81,1.48,2.59,2.21,1.96,1.82,3.1,3.03,3.96,4.2Z"/>
      <path class="cls-2" d="m478.38,400.05s-5.11-.89-11.32,0"/>
      <path class="cls-2" d="m478.81,400.75s-6.52.15-11.27,1.88"/>
      <path class="cls-2" d="m478.99,401.45s-4.38.66-8.29,3.46"/>
      <path class="cls-2" d="m484.73,400.05s5.11-.89,11.32,0"/>
      <path class="cls-2" d="m484.3,400.75s6.52.15,11.27,1.88"/>
      <path class="cls-2" d="m484.12,401.45s4.38.66,8.29,3.46"/>
      <path class="cls-1" d="m503.24,390.24c0,1.27-.06,2.52-.18,3.75-.09.95-.21,1.88-.37,2.81-.16.93-.34,1.85-.56,2.75-.19.77-.4,1.53-.63,2.28-.71,2.33-1.64,4.57-2.76,6.69-.48.92-1.01,1.82-1.56,2.7-.73,1.15-1.51,2.25-2.34,3.31-4.14,5.26-9.59,9.44-15.86,12.03-2.95,1.22-6.08,2.1-9.35,2.57-1.86.27-3.75.41-5.69.41s-4.02-.15-5.96-.45c-1.56-.23-3.09-.56-4.58-.98-1.49-.41-2.95-.92-4.36-1.49-.87-.36-1.72-.74-2.55-1.16-.42-.2-.83-.42-1.24-.64-.18-.1-.37-.2-.55-.31-.22-.13-.44-.25-.66-.38-.2-.11-.4-.23-.59-.36-.16-.1-.32-.2-.48-.3-.23-.15-.46-.3-.69-.45-.19-.13-.38-.26-.57-.39-.18-.13-.37-.26-.55-.38-.01,0-.03-.02-.04-.02-.18-.13-.36-.27-.54-.4-.19-.14-.37-.28-.55-.42-.18-.14-.37-.28-.55-.43-.36-.29-.72-.59-1.07-.89-.35-.3-.69-.6-1.03-.91l-.51-.47c-1.33-1.27-2.58-2.63-3.73-4.08-.14-.18-.28-.36-.42-.55-.14-.18-.28-.37-.42-.56-.14-.18-.27-.37-.41-.56-.19-.27-.38-.54-.56-.81-.19-.28-.38-.57-.56-.86-.27-.43-.54-.87-.79-1.31-.1-.17-.19-.33-.29-.5-.12-.22-.24-.43-.36-.65-2.99-5.55-4.69-11.89-4.69-18.63,0-21.7,17.6-39.3,39.31-39.3s39.3,17.6,39.3,39.3Z"/>
      <path class="cls-6" d="m501.85,399.54c.09.01.19.02.28.02-.19.77-.4,1.53-.63,2.28-.15-.03-.3-.08-.45-.14-.49-.19-.96-.52-1.15-1-.19-.49,0-1.14.48-1.33.46-.18.97.09,1.47.17Z"/>
      <path class="cls-6" d="m503.06,393.99c-.09.95-.21,1.88-.37,2.81-1.67-.55-3.52.04-4.91,1.13-1.88,1.49-2.26,4.3-1.8,6.03.47,1.82,1.59,3.3,2.75,4.56-.48.92-1.01,1.82-1.56,2.7-1.18-1.38-2.25-2.85-3.07-4.46-.74-1.45-1.08-3.21-1.02-4.87h0c.03-.74.13-1.46.31-2.12.18-.67.43-1.29.76-1.82,2.06-3.3,5.6-4.11,7.71-4.08.36,0,.78.04,1.2.11Z"/>
    </g>
  </g>
  <g>
    <circle class="cls-5" cx="944.63" cy="390.24" r="39.31"/>
    <g>
      <path class="cls-6" d="m970.91,406.07h-19.14v4.48h7.67c3.34,0,4.79-.03,6.55-.03h5.12c1.59,0,1.77-1.36,1.77-1.36v-1.14s.11-1.96-1.96-1.96h0Z"/>
      <path class="cls-6" d="m968.26,404.92c2.61,0,4.74-2.12,4.74-4.73s-2.13-4.73-4.74-4.73-4.74,2.11-4.74,4.73,2.12,4.73,4.74,4.73h0Z"/>
      <path class="cls-6" d="m958.26,405.2c2.49,0,4.49-2.01,4.49-4.48s-1.98-3.89-4.46-3.91l-6.52.69v7.7h6.49Z"/>
      <path class="cls-6" d="m936.97,374.04c2.91,0,5.26-2.35,5.26-5.25s-2.35-5.25-5.26-5.25-5.26,2.35-5.26,5.25c0,2.9,2.36,5.25,5.26,5.25h0Z"/>
      <path class="cls-6" d="m931.6,391.03s-.04-.04-.05-.07l-2.38-5.62v10.9s7.12,0,7.12,0l1.56-1.55-4.22-1.57c-1-.37-1.71-1.17-2.03-2.11h0Z"/>
      <path class="cls-6" d="m933.11,390.53c.23.52.66.93,1.19,1.13l8.13,2.99c1.04.46,2.26-.02,2.71-1.06.46-1.04-.02-2.26-1.06-2.71l-7.5-2.82-2.32-5.53,1.51-.56,1.97,4.73,5.71,2.1v-5.79s3.02,1.79,3.02,1.79l1.5,7.56c.37,1.08,1.54,1.65,2.62,1.27,1.07-.37,1.64-1.55,1.27-2.62l-1.69-7.28c-.11-.41-.35-.76-.66-1.03-.87-.95-5.25-5.75-5.56-6.08-.46-.46-1.51-1.21-3.48-1.21h-7.09c-4.03,0-4.81,4.02-3.98,6.1l3.71,9Z"/>
      <path class="cls-6" d="m950.6,397.11h-32.02c-1.16,0-2.32,1.16-2.32,2.6,0,.33,0,.94,0,.94v9.87s2.75,0,2.75,0h31.59v-13.42Z"/>
    </g>
  </g>
  <g>
    <circle class="cls-5" cx="848.49" cy="390.24" r="39.31"/>
    <g>
      <path class="cls-6" d="m847.39,400.17c-.92,0-1.78.2-2.55.57v-14.95l-3.08-22.98s-.07-.33-.52-.47h0s0,0-.01,0c0,0,0,0,0,0h0c-.46.15-.52.48-.52.48l-3.08,22.98v14.95c-.78-.36-1.64-.57-2.55-.57-3.34,0-6.04,2.7-6.04,6.04s2.7,6.04,6.04,6.04,6.04-2.71,6.04-6.04c0-.64-.1-1.25-.28-1.82v-12.86h.8v12.86c-.18.57-.28,1.18-.28,1.82,0,3.31,2.66,5.99,5.96,6.04-.08,1.08.04,2.7.54,4.02.58,1.54,2.12,2.36,2.94,1.61,1.68-1.47-.82-3.46-.82-3.46-.69-1-.43-2.05-.16-2.67,2.14-.93,3.63-3.06,3.63-5.54,0-3.34-2.71-6.05-6.04-6.05h0Zm-12.33,9.37c-1.84,0-3.33-1.49-3.33-3.33s1.49-3.33,3.33-3.33,3.33,1.49,3.33,3.33c0,1.84-1.49,3.33-3.33,3.33Zm12.33,0c-1.84,0-3.33-1.49-3.33-3.33s1.5-3.33,3.33-3.33,3.33,1.49,3.33,3.33c0,1.84-1.49,3.33-3.33,3.33Z"/>
      <g>
        <path class="cls-6" d="m856.23,386.27h-6.94c.07.33.14.65.22.97h6.94c-.08-.32-.15-.65-.22-.97Z"/>
        <path class="cls-6" d="m856.78,388.57h-6.94c.08.33.17.65.26.97h6.94c-.09-.32-.17-.64-.26-.97Z"/>
        <path class="cls-6" d="m857.41,390.88h-6.94c.1.33.19.65.29.97h6.94c-.1-.32-.2-.64-.29-.97Z"/>
        <path class="cls-6" d="m855.79,383.96h-6.94c.06.32.11.65.18.97h6.94c-.06-.32-.12-.65-.18-.97Z"/>
        <path class="cls-6" d="m855.45,381.66h-6.94c.04.32.08.65.13.97h6.94c-.05-.32-.09-.65-.13-.97Z"/>
        <path class="cls-6" d="m855.26,379.36h-6.94c.02.32.04.65.06.97h6.94c-.03-.33-.05-.65-.06-.97Z"/>
        <path class="cls-6" d="m855.23,377.05h-6.94c0,.32,0,.64,0,.97h6.94c0-.33,0-.65,0-.97Z"/>
        <path class="cls-6" d="m855.33,374.75h-6.94c-.02.32-.04.64-.05.97h6.94c.01-.33.03-.65.05-.97Z"/>
        <path class="cls-6" d="m855.53,372.44h-6.94c-.04.32-.07.64-.1.97h6.94c.03-.33.07-.65.1-.97Z"/>
        <path class="cls-6" d="m855.88,370.14h-6.94c-.06.32-.12.64-.17.97h6.94c.05-.33.11-.66.17-.97Z"/>
        <path class="cls-6" d="m856.43,367.84h-6.94c-.09.31-.18.64-.26.97h6.94c.08-.34.17-.66.26-.97Z"/>
        <path class="cls-6" d="m857.28,365.53h-6.94c-.14.3-.28.63-.41.97h6.94c.13-.34.27-.67.41-.97Z"/>
        <path class="cls-6" d="m858.85,363.23h-6.94c-.31.29-.58.62-.82.97h6.94c.24-.35.51-.68.82-.97Z"/>
        <path class="cls-6" d="m867.96,378.04c0-9.92-2.54-15.71-5.67-15.71s-5.67,5.79-5.67,15.71c0,4.96,1.64,10.73,2.84,14.95,1.55,5.48.52,12.18-.22,20.21-.07.85.22,1.68.8,2.31.58.63,1.39.98,2.25.98s1.67-.35,2.25-.98c.57-.63.86-1.46.8-2.31-.75-8.03-1.77-14.73-.22-20.21,1.2-4.22,2.84-9.99,2.84-14.95Z"/>
      </g>
    </g>
  </g>
  <g>
    <circle class="cls-5" cx="560.07" cy="390.24" r="39.31"/>
    <g>
      <g>
        <path class="cls-6" d="m576.68,377.7v-4.78c0-1.67-1.36-3.03-3.03-3.03h-27.17c-1.66,0-3.03,1.36-3.03,3.03v4.78h33.22Zm-4.51-5.39c.8,0,1.48.65,1.48,1.48s-.67,1.48-1.48,1.48-1.48-.67-1.48-1.48c0-.84.69-1.48,1.48-1.48h0Zm-4.78,0c.8,0,1.48.65,1.48,1.48s-.67,1.48-1.48,1.48-1.48-.67-1.48-1.48.69-1.48,1.48-1.48Zm-19.42,0h9.49c.82,0,1.48.66,1.48,1.48s-.66,1.48-1.48,1.48h-9.49c-.82,0-1.48-.66-1.48-1.48s.66-1.48,1.48-1.48Z"/>
        <path class="cls-6" d="m543.46,378.91v27c0,1.67,1.36,3.03,3.03,3.03h27.17c1.66,0,3.03-1.36,3.03-3.03v-27h-33.22Zm16.61,24.24c-5.42,0-9.84-4.41-9.84-9.84s4.36-9.84,9.84-9.84,9.84,4.3,9.84,9.84-4.56,9.84-9.84,9.84Z"/>
        <path class="cls-6" d="m567.51,388.97c-.69.06-1.37.19-2.03.37-3.69,1-7.1,3.6-11.14,3.66-.98.01-1.95-.12-2.87-.29-.01.2-.03.41-.03.61,0,4.76,3.87,8.63,8.63,8.63s8.63-3.77,8.63-8.63c0-1.52-.4-3.02-1.18-4.35h0Zm-11.64,7.94c-.5,0-.91-.41-.91-.91s.41-.91.91-.91.91.41.91.91-.41.91-.91.91Zm4.46,2.4c-.5,0-.91-.41-.91-.91s.41-.91.91-.91.91.41.91.91-.41.91-.91.91Zm3.75-4.69c-.5,0-.91-.41-.91-.91s.41-.91.91-.91.91.41.91.91-.41.91-.91.91Z"/>
      </g>
      <path class="cls-6" d="m546.99,407.2h26.06v2.57c0,.46-.37.83-.83.83h-24.39c-.46,0-.83-.37-.83-.83v-2.57h0Z"/>
    </g>
  </g>
  <g>
    <circle class="cls-5" cx="656.21" cy="390.24" r="39.31"/>
    <g>
      <g>
        <path class="cls-6" d="m663.29,402.14l-31.41-19.72c-.11-.07-.13-.16-.06-.27l1.07-1.7c.07-.11.16-.13.27-.06l31.35,19.69c.11.07.13.16.06.27l-1.07,1.7c-.01.14-.1.16-.21.1h0Z"/>
        <path class="cls-6" d="m676.98,395.58l5.62-8.95c.24-.38.21-.94-.14-1.24-21.98-20.23-43.6-9.7-47.6-7.46-.34.17-.32.64-.05.81l31.08,19.52c.22.14.54.11.74-.07,2.66-2.16,6.27-3.03,9.58-2.33.34.06.61,0,.78-.27h0Zm-10.97-4.59c-.11-.07-.15-.25-.08-.36l.52-.82c.07-.11.03-.29-.08-.36l-6.31-3.97c-.11-.07-.29-.03-.36.08l-.52.82c-.07.11-.25.15-.36.08l-6.86-4.31c-.33-.21-.29-.64.05-.81,2.61-1.35,12.27-5.39,22.15,3.5.35.3.38.85.14,1.24l-3.96,6.31c-.31.49-1.03.66-1.52.35l-2.8-1.76Z"/>
      </g>
      <g>
        <path class="cls-6" d="m649.97,399.66l1.96-3.12-1.25-.78-2.66,4.24.52.42c1.67,1.22,2.08,3.48.98,5.23s-3.57,2.37-5.38,1.23l-.31-.2-.58-.45-.45.58c-.38.46-1.14.85-2.11.59-.97-.26-1.72-1.42-1.76-2.32l-.07-1-.89.31c-.65.2-1.69.07-2.72-.93-.9-.92-1.32-2.74-.44-4.01l.45-.58-.58-.45c-1.15-.81-1.46-2.39-.71-3.58.78-1.25,2.41-1.62,3.66-.84.25.16.4.34.55.52l.65.76,3.13-4.99-1.25-.78-2.15,3.43c-1.92-1.38-4.68-.85-5.98,1.21-1.06,1.68-.73,3.8.59,5.16-.79,1.68-.42,4,.96,5.39,1.18,1.17,2.43,1.53,3.43,1.46.27.95.97,1.92,1.85,2.46.25.16.6.29.89.38,1.32.39,2.45-.03,3.23-.58,2.53,1.51,5.76.66,7.33-1.83,1.35-2.29.9-5.18-.88-6.91h0Z"/>
        <path class="cls-6" d="m643.5,391.25l1.25.78-4.04,6.43-1.25-.78,4.04-6.43Z"/>
        <path class="cls-6" d="m634.15,385.37l1.25.78-2.27,3.62-1.25-.78,2.27-3.62Z"/>
        <path class="cls-6" d="m657.48,400.03l1.25.78-4.27,6.8-1.25-.78,4.27-6.8Z"/>
      </g>
    </g>
  </g>
  <g>
    <circle class="cls-5" cx="752.35" cy="390.24" r="39.31"/>
    <g>
      <path class="cls-4" d="m741.59,393.82h21.52c1.26,0,2.28,1.03,2.28,2.28h0c0,1.25-1.03,2.28-2.28,2.28h-21.52c-1.26,0-2.28-1.03-2.28-2.28h0c0-1.25,1.03-2.28,2.28-2.28Z"/>
      <path class="cls-4" d="m762.49,413.86l1.33-13.97c-.23.05-.47.07-.71.07h-21.52c-.24,0-.48-.02-.71-.07l1.33,13.97c.21,2.15,1.99,3.77,4.15,3.77h11.99c2.16,0,3.94-1.62,4.15-3.77h0Z"/>
      <path class="cls-6" d="m749.34,366.04c.28-1.12.37-2.25.28-3.18.75.56,1.69,1.41,2.53,2.34-.75.37-1.5.75-2.15,1.31-.19-.19-.37-.28-.66-.47Zm3.84,2.72c1.03-.66,1.97-1.22,2.9-1.69.09-1.03.47-1.97.84-2.81-1.59.56-4.03,1.31-6.09,2.72.84.56,1.59,1.12,2.34,1.78Zm6.09,7.21c-.28-1.41-.84-3-.94-4.59-.19-1.59,0-3.18.56-4.59-1.31.66-3.18,1.5-4.96,2.62,1.41,1.41,2.72,3,3.47,4.96,1.41,3.47.19,7.03-1.69,8.99-.56.56-1.12,1.12-1.78,1.5.66,0,1.22,0,1.78-.19,2.06-.56,3.28-1.87,3.84-3.37.47-1.5.28-3.28-.28-5.34Zm-4.22,6.84c1.69-1.78,2.72-5.06,1.5-8.06-2.06-5.06-7.77-7.96-10.77-9.55.47,1.41.75,3.18.56,4.96-.09,1.78-.66,3.56-.94,5.06-.47,2.25-.75,4.22-.28,5.9.47,1.69,1.69,3.09,3.84,3.65,1.97.47,4.5-.19,6.09-1.97Zm-1.86,14.19h-2.21l.41-10.88h1.18l.62,10.88Z"/>
    </g>
  </g>
</svg>